<mxfile host="app.diagrams.net" modified="2022-11-07T12:19:41.014Z" agent="5.0 (Macintosh; Intel Mac OS X 10_15_7) AppleWebKit/537.36 (KHTML, like Gecko) Chrome/107.0.0.0 Safari/537.36" etag="9LQr5jpvuYFxchUoMP-h" version="20.5.3" type="github">
  <diagram id="fAzPS7VPLq09bKIhMFXc" name="페이지-1">
    <mxGraphModel dx="946" dy="646" grid="1" gridSize="10" guides="1" tooltips="1" connect="1" arrows="1" fold="1" page="1" pageScale="1" pageWidth="827" pageHeight="1169" math="0" shadow="0">
      <root>
        <mxCell id="0" />
        <mxCell id="1" parent="0" />
        <mxCell id="R886sbOOun7oYMftV1Vu-1" value="" style="rounded=0;whiteSpace=wrap;html=1;" vertex="1" parent="1">
          <mxGeometry x="148" y="70" width="400" height="330" as="geometry" />
        </mxCell>
        <mxCell id="R886sbOOun7oYMftV1Vu-2" value="1. 메인 보드" style="text;html=1;align=center;verticalAlign=middle;resizable=0;points=[];autosize=1;strokeColor=none;fillColor=none;" vertex="1" parent="1">
          <mxGeometry x="143" y="42" width="80" height="30" as="geometry" />
        </mxCell>
        <mxCell id="R886sbOOun7oYMftV1Vu-4" value="" style="endArrow=classic;startArrow=classic;html=1;rounded=0;align=center;" edge="1" parent="1">
          <mxGeometry width="50" height="50" relative="1" as="geometry">
            <mxPoint x="670" y="358" as="sourcePoint" />
            <mxPoint x="400" y="358" as="targetPoint" />
          </mxGeometry>
        </mxCell>
        <mxCell id="R886sbOOun7oYMftV1Vu-5" value="" style="endArrow=classic;startArrow=classic;html=1;rounded=0;align=center;" edge="1" parent="1">
          <mxGeometry width="50" height="50" relative="1" as="geometry">
            <mxPoint x="670" y="303" as="sourcePoint" />
            <mxPoint x="400" y="303" as="targetPoint" />
          </mxGeometry>
        </mxCell>
        <mxCell id="R886sbOOun7oYMftV1Vu-6" value="" style="endArrow=classic;startArrow=classic;html=1;rounded=0;align=center;" edge="1" parent="1">
          <mxGeometry width="50" height="50" relative="1" as="geometry">
            <mxPoint x="670" y="245" as="sourcePoint" />
            <mxPoint x="400" y="245" as="targetPoint" />
          </mxGeometry>
        </mxCell>
        <mxCell id="R886sbOOun7oYMftV1Vu-7" value="2. 시스템 버스" style="edgeLabel;html=1;align=center;verticalAlign=middle;resizable=0;points=[];" vertex="1" connectable="0" parent="R886sbOOun7oYMftV1Vu-6">
          <mxGeometry x="0.563" y="-2" relative="1" as="geometry">
            <mxPoint x="-20" y="-16" as="offset" />
          </mxGeometry>
        </mxCell>
        <mxCell id="R886sbOOun7oYMftV1Vu-9" value="" style="whiteSpace=wrap;html=1;aspect=fixed;" vertex="1" parent="1">
          <mxGeometry x="160" y="120" width="140" height="140" as="geometry" />
        </mxCell>
        <mxCell id="R886sbOOun7oYMftV1Vu-10" value="3. CPU" style="text;html=1;strokeColor=none;fillColor=none;align=center;verticalAlign=middle;rounded=0;" vertex="1" parent="1">
          <mxGeometry x="158" y="90" width="60" height="30" as="geometry" />
        </mxCell>
        <mxCell id="R886sbOOun7oYMftV1Vu-12" value="ALU" style="rounded=1;whiteSpace=wrap;html=1;flipH=1;" vertex="1" parent="1">
          <mxGeometry x="168" y="130" width="50" height="30" as="geometry" />
        </mxCell>
        <mxCell id="R886sbOOun7oYMftV1Vu-13" value="레지스터" style="rounded=1;whiteSpace=wrap;html=1;" vertex="1" parent="1">
          <mxGeometry x="228" y="130" width="60" height="20" as="geometry" />
        </mxCell>
        <mxCell id="R886sbOOun7oYMftV1Vu-15" value="레지스터" style="rounded=1;whiteSpace=wrap;html=1;" vertex="1" parent="1">
          <mxGeometry x="228" y="160" width="60" height="20" as="geometry" />
        </mxCell>
        <mxCell id="R886sbOOun7oYMftV1Vu-16" value="레지스터" style="rounded=1;whiteSpace=wrap;html=1;" vertex="1" parent="1">
          <mxGeometry x="228" y="190" width="60" height="20" as="geometry" />
        </mxCell>
        <mxCell id="R886sbOOun7oYMftV1Vu-17" value="" style="shape=image;verticalLabelPosition=bottom;labelBackgroundColor=default;verticalAlign=top;aspect=fixed;imageAspect=0;image=data:image/png,iVBORw0KGgoAAAANSUhEUgAAAgAAAAIACAYAAAD0eNT6AAAMbWlDQ1BJQ0MgUHJvZmlsZQAASImVVwdYU8kWnluSkJAQIICAlNCbIFIDSAmhBZBeBBshCSSUGBOCir0sKrh2EQEbuiqi2FZA7NiVRbH3xYKKsi7qYkPlTUhA133le+f75t4/Z878p9yZ3HsAoH/gSaV5qDYA+ZICWUJ4MHN0WjqT9BQgAAMUQAB0Hl8uZcfFRQMoA/e/y7sb0BrKVWcl1z/n/6voCoRyPgDIWIgzBXJ+PsTHAcCr+FJZAQBEpd5qcoFUiWdDrCeDAUK8SomzVXi7Emeq8OF+m6QEDsSXAdCg8niybAC07kE9s5CfDXm0PkPsKhGIJQDQh0EcwBfxBBArYx+Wnz9Ricshtof2UohhPICV+R1n9t/4Mwf5ebzsQazKq180QsRyaR5v6v9Zmv8t+XmKAR+2cFBFsogEZf6whrdyJ0YpMRXiLklmTKyy1hB/EAtUdQcApYgUEckqe9SEL+fA+gEDiF0FvJAoiE0gDpPkxUSr9ZlZ4jAuxHC3oFPEBdwkiA0hXiiUhyaqbTbKJiaofaH1WTIOW60/x5P1+1X6eqDITWar+d+IhFw1P6ZVJEpKhZgCsXWhOCUGYi2IXeS5iVFqm5FFIk7MgI1MkaCM3xriBKEkPFjFjxVmycIS1PYl+fKBfLGNIjE3Ro33FYiSIlT1wU7xef3xw1ywy0IJO3mARygfHT2Qi0AYEqrKHXsulCQnqnk+SAuCE1RrcYo0L05tj1sK88KVekuIPeSFieq1eEoB3JwqfjxLWhCXpIoTL8rhRcap4sGXgWjAASGACRRwZIKJIAeIW7sauuAv1UwY4AEZyAZC4KzWDKxI7Z+RwGsiKAJ/QCQE8sF1wf2zQlAI9V8GtaqrM8jqny3sX5ELnkKcD6JAHvyt6F8lGfSWAp5Ajfgf3nlw8GG8eXAo5/+9fkD7TcOGmmi1RjHgkUkfsCSGEkOIEcQwogNujAfgfng0vAbB4YazcJ+BPL7ZE54S2giPCNcJ7YTbE8RzZT9EOQq0Q/4wdS0yv68Fbgs5PfFg3B+yQ2bcADcGzrgH9MPGA6FnT6jlqONWVoX5A/ffMvjuaajtyK5klDyEHES2/3GllqOW5yCLstbf10cVa+ZgvTmDMz/653xXfQG8R/1oiS3E9mNnsRPYeeww1gCY2DGsEWvBjijx4O560r+7Brwl9MeTC3nE//DHU/tUVlLuWuva6fpZNVcgnFKgPHicidKpMnG2qIDJhm8HIZMr4bsMY7q5urkBoHzXqP6+3sb3v0MQg5Zvunm/A+B/rK+v79A3XeQxAPZ6w+N/8JvOngWAjiYA5w7yFbJClQ5XXgjwX4IOT5oRMANWwB7m4wa8gB8IAqEgEsSCJJAGxsMqi+A+l4HJYDqYA4pBKVgGVoMKsAFsBtvBLrAPNIDD4AQ4Ay6Cy+A6uAt3Twd4CbrBO9CLIAgJoSEMxAgxR2wQJ8QNYSEBSCgSjSQgaUgGko1IEAUyHZmHlCIrkApkE1KD7EUOIieQ80gbcht5iHQib5BPKIZSUT3UFLVFh6MslI1GoUnoODQbnYQWofPRJWg5Wo3uROvRE+hF9Drajr5EezCAaWIGmAXmjLEwDhaLpWNZmAybiZVgZVg1Voc1wed8FWvHurCPOBFn4EzcGe7gCDwZ5+OT8Jn4YrwC347X46fwq/hDvBv/SqARTAhOBF8ClzCakE2YTCgmlBG2Eg4QTsOz1EF4RyQSDYh2RG94FtOIOcRpxMXEdcTdxOPENuJjYg+JRDIiOZH8SbEkHqmAVExaS9pJOka6QuogfdDQ1DDXcNMI00jXkGjM1SjT2KFxVOOKxjONXrI22YbsS44lC8hTyUvJW8hN5EvkDnIvRYdiR/GnJFFyKHMo5ZQ6ymnKPcpbTU1NS00fzXhNseZszXLNPZrnNB9qfqTqUh2pHOpYqoK6hLqNepx6m/qWRqPZ0oJo6bQC2hJaDe0k7QHtgxZDy0WLqyXQmqVVqVWvdUXrFZ1Mt6Gz6ePpRfQy+n76JXqXNlnbVpujzdOeqV2pfVD7pnaPDkNnhE6sTr7OYp0dOud1nuuSdG11Q3UFuvN1N+ue1H3MwBhWDA6Dz5jH2MI4zejQI+rZ6XH1cvRK9Xbptep16+vqe+in6E/Rr9Q/ot9ugBnYGnAN8gyWGuwzuGHwaYjpEPYQ4ZBFQ+qGXBny3nCoYZCh0LDEcLfhdcNPRkyjUKNco+VGDUb3jXFjR+N448nG641PG3cN1RvqN5Q/tGTovqF3TFATR5MEk2kmm01aTHpMzUzDTaWma01PmnaZGZgFmeWYrTI7atZpzjAPMBebrzI/Zv6Cqc9kM/OY5cxTzG4LE4sIC4XFJotWi15LO8tky7mWuy3vW1GsWFZZVqusmq26rc2tR1lPt661vmNDtmHZiGzW2Jy1eW9rZ5tqu8C2wfa5naEd167Irtbunj3NPtB+kn21/TUHogPLIddhncNlR9TR01HkWOl4yQl18nISO61zahtGGOYzTDKsethNZ6oz27nQudb5oYuBS7TLXJcGl1fDrYenD18+/Ozwr66ernmuW1zvjtAdETli7oimEW/cHN34bpVu19xp7mHus9wb3V97OHkIPdZ73PJkeI7yXODZ7PnFy9tL5lXn1elt7Z3hXeV9k6XHimMtZp3zIfgE+8zyOezz0dfLt8B3n++ffs5+uX47/J6PtBspHLll5GN/S3+e/yb/9gBmQEbAxoD2QItAXmB14KMgqyBB0NagZ2wHdg57J/tVsGuwLPhA8HuOL2cG53gIFhIeUhLSGqobmhxaEfogzDIsO6w2rDvcM3xa+PEIQkRUxPKIm1xTLp9bw+2O9I6cEXkqihqVGFUR9SjaMVoW3TQKHRU5auWoezE2MZKYhlgQy41dGXs/zi5uUtyheGJ8XHxl/NOEEQnTE84mMhInJO5IfJcUnLQ06W6yfbIiuTmFnjI2pSblfWpI6orU9tHDR88YfTHNOE2c1phOSk9J35reMyZ0zOoxHWM9xxaPvTHObtyUcefHG4/PG39kAn0Cb8L+DEJGasaOjM+8WF41ryeTm1mV2c3n8NfwXwqCBKsEnUJ/4Qrhsyz/rBVZz7P9s1dmd4oCRWWiLjFHXCF+nRORsyHnfW5s7rbcvrzUvN35GvkZ+QclupJcyamJZhOnTGyTOkmLpe2TfCetntQti5JtlSPycfLGAj34Ud+isFf8pHhYGFBYWfhhcsrk/VN0pkimtEx1nLpo6rOisKJfpuHT+NOap1tMnzP94Qz2jE0zkZmZM5tnWc2aP6tjdvjs7XMoc3Ln/DbXde6KuX/NS53XNN90/uz5j38K/6m2WKtYVnxzgd+CDQvxheKFrYvcF61d9LVEUHKh1LW0rPTzYv7iCz+P+Ln8574lWUtal3otXb+MuEyy7MbywOXbV+isKFrxeOWolfWrmKtKVv21esLq82UeZRvWUNYo1rSXR5c3rrVeu2zt5wpRxfXK4MrdVSZVi6rerxOsu7I+aH3dBtMNpRs+bRRvvLUpfFN9tW112Wbi5sLNT7ekbDn7C+uXmq3GW0u3ftkm2da+PWH7qRrvmpodJjuW1qK1itrOnWN3Xt4Vsquxzrlu026D3aV7wB7Fnhd7M/be2Be1r3k/a3/drza/Vh1gHCipR+qn1nc3iBraG9Ma2w5GHmxu8ms6cMjl0LbDFocrj+gfWXqUcnT+0b5jRcd6jkuPd53IPvG4eULz3ZOjT147FX+q9XTU6XNnws6cPMs+e+yc/7nD533PH7zAutBw0etifYtny4HfPH870OrVWn/J+1LjZZ/LTW0j245eCbxy4mrI1TPXuNcuXo+53nYj+catm2Nvtt8S3Hp+O+/26zuFd3rvzr5HuFdyX/t+2QOTB9W/O/y+u92r/cjDkIctjxIf3X3Mf/zyifzJ5475T2lPy56ZP6t57vb8cGdY5+UXY150vJS+7O0q/kPnj6pX9q9+/TPoz5bu0d0dr2Wv+94sfmv0dttfHn8198T1PHiX/673fckHow/bP7I+nv2U+ulZ7+TPpM/lXxy+NH2N+nqvL7+vT8qT8fo/BTA40KwsAN5sA4CWBgAD9m2UMapesF8QVf/aj8B/wqp+sV+8AKiD3+/xXfDr5iYAe7bA9gvy02GvGkcDIMkHoO7ug0Mt8ix3NxUXFfYphAd9fW9hz0ZaCcCXZX19vdV9fV82w2Bh73hcoupBlUKEPcNG7pfM/Ezwb0TVn36X4493oIzAA/x4/xfwk5CLtzxSzQAAADhlWElmTU0AKgAAAAgAAYdpAAQAAAABAAAAGgAAAAAAAqACAAQAAAABAAACAKADAAQAAAABAAACAAAAAAAoMJe/AAAqhElEQVR4Ae3dfbBcZ30f8Ofs3hdJtmTjF0ywZRfC2IAb/IIb3hzsNC+dJBgUEpumiScEE08bpp029I/Spqkg4Ok0zbQzmTANDSWMS2gcmtghuJ1MU1Mgrh1MbCcxYKBOjWRsy7ZeLOm+7cvpc66Rkaor6+res/s75+5nGXGlvbvP7/d8nut7vnvO2bMpuREgQIAAAQIECBAgQIAAAQIECBAgQIAAAQIECBAgQIAAAQIECBAgQIAAAQIECBAgQIAAAQIECBAgQIAAAQIECBAgQIAAAQIECBAgQIAAAQIECBAgQIAAAQIECBAgQIAAAQIECBAgQIAAAQIECBAgQIAAAQIECBAgQIAAAQIECBAgQIAAAQIECBAgQIAAAQIECBAgQIAAAQIECBAgQIAAAQIECBAgQIAAAQIECBAgQIAAAQIECBAgQIAAAQIECBAgQIAAAQIECBAgQIAAAQIECBAgQIAAAQIECBAgQIAAAQIECBAgQIAAAQIECBAgQIAAgbEKFKOs9sM3/uppp83OvXFYlpd1inRJrnVxmdK5+etp+c/WUdY2NgECBAgQWI1AWQ63lmXZGZb5f8P8Z9Af9gb9waDfGyz2Fvr5e3nTNdLbwTz64VzkqbxRfjh//VoqiwfnFxbv/os/vvXwqCrXHgCuu3nnhd1B8dMplT+aivS63Pj0qJo3LgECBAgQGK1AmXq9pbTYW0wLi3Op3++Nttyxoy/ljfS9w1TcOUyDT3zxjo/tOvbb6/tXLQFg586dnQceK348leUv5HauzX8662vLswkQIECAQPMEqjAwN38ozS/lF+aj3i9w7PSH+Z935T0DH77nygtuTzt3Vv9e121dAWB5w787/b38Sv99GeLV6+rEkwkQIECAQEsE8vGBdGjuYFpYOJw3f+NNApnoy/kF9y33XHnhJ9cTBNYcAHb8/M7L85w/nBt5Q0vWS5sECBAgQKBWgcGglw4c3J+Wegu1jrvKwb7UGXb+wd2f/o9fXOXjj3nYKQeAm2/+zeknh49/KD/xF/NI3WNG8w8CBAgQIDBxAmWaW5hLBw/tyy/Mx743YJBfjP9a7yXdX/rSRz5ySiconFIAeNvPfXB70e3/l7y2b5y49TVhAgQIECDwAgL9fj/tf/bp1M97BcZ+K8ovDgedd/zZp3/rr1dbe9UB4O3v3vn6fMbBH+WBz17t4B5HgAABAgQmSaDaA7Avh4ClpZBDAk+nNHzLPXd87N7VmK9qF/6Om97/A2WRPpMHPHM1g3oMAQIECBCYRIGiKNLm2dPSYDgY91sGK+4tKRU/dcGrrrh/91fv/8bJ/E8aAHb8/Pt/JL/XoXrlv/lkg/k+AQIECBCYeIG8b312dnMaDnIIGP/hgJkcAm7IIeC+k4WAFzwE8LabP/C6Yjj8k7yY1ZX73AgQIECAAIFVClRvD9x/4Om0GHI4oJjPZyT+0D1/+NE/PVG7JwwA1737V17WTYP78hPPOtGT3U+AAAECBAicWCBfZjg9s39PxOGAqqlnOt302rt//6OPrtThilfsq97qlzf+n8hPsPFfSc19BAgQIEBgFQJF0Ulnbj07VV8DbmfnUxFuu/T66/NhgeNvK3a0Z/D4v84PdYGf473cQ4AAAQIETklgamo6bTv9Raf0nBof/L3blrZ9aKXxjjsEsOPdH3htfhtB9RaCk54guNKA7iNAgAABAgSOF6jOB1hYmj/+G6O/Z5jfnPCG/337R//s6FLH7AGoru2fyuFv5AfY+B+t5O8ECBAgQGCdAltPPzMfCjjudfc6R13V0/O2Pf3G9ddff8y2/ZgAcP/u4me//RG+qxrRgwgQIECAAIHVCXS7U2nL5q2re3DNj8oXKL5q1+K2nzl62OcDwPXX39YtUvnPjv6mvxMgQIAAAQL1CZyWA0DQCYH58gDpl47eC/B8AOid8ZUb8hQvrm+aRiJAgAABAgSOFuh0OnkvQNildV6xa+mMnzzSz/MBIF+w4D1H7vSVAAECBAgQGI3Alk2nj2bgVYya9/Q/v61fDgBvvWnnK/JpCT7hbxV4HkKAAAECBNYjUJ0LMDO94lvz1zPsqp6bzwW4+m/9xLteXj14OQDk6xPcmP8ecmriqjr2IAIECBAgsIEENm0KOwxQTPWL5ZMBnwsAZfrRDeRqKgQIECBAoNECm6bjPl8v7wVY3uYXO96588w0lfJnCHvvf6N/WjRHgAABAhtK4Km9j6fBoB8xp8GmYnBOZzid3pyrH3NxgIhu1CRAgAABApMkMDuzKWq63YWy+32dTllcFtWBugQIECBAYFIFprrTgVMvXtPJb/+7JLADpQkQIECAwEQKVO8GiLrltwNe0smn/gsAUSugLgECBAhMrMB04B6AfCLgJdW7AF48sfomToAAAQIEggSK6iV43O3cKgDEXZIobuIqEyBAgACBUIHqMwGKuEvwbKsOQAgAoT8CihMgQIBApECnO5uKcjSvxgflYkpl3uF+olu1F2D4At8/0fPWf//WKgDEXI8wp55rfuyX1z8FIxAgQIAAgXUIPLmrTL2l0QSAk7W19973pqWlAyd72Ci+P7N8JcBRjGxMAgQIECDQDoGYjX+0jQAQvQLqEyBAgACBAAEBIABdSQIECBAgEC0gAESvgPoECBAgQCBAQAAIQFeSAAECBAhECwgA0SugPgECBAgQCBAQAALQlSRAgAABAtECAkD0CqhPgAABAgQCBASAAHQlCRAgQIBAtIAAEL0C6hMgQIAAgQABASAAXUkCBAgQIBAtEBYAism88mL0eqtPgAABAgSWBcICAH8CBAgQIEAgTkAAiLNXmQABAgQIhAkIAGH0ChMgQIAAgTgBASDOXmUCBAgQIBAmIACE0StMgAABAgTiBASAOHuVCRAgQIBAmIAAEEavMAECBAgQiBMQAOLsVSZAgAABAmECAkAYvcIECBAgQCBOQACIs1eZAAECBAiECQQGANcCDlt1hQkQIEBg4gUCA8DE2wMgQIAAAQJhAgJAGL3CBAgQIEAgTkAAiLNXmQABAgQIhAkIAGH0ChMgQIAAgTgBASDOXmUCBAgQIBAmIACE0StMgAABAgTiBASAOHuVCRAgQIBAmIAAEEavMAECBAgQiBMQAOLsVSZAgAABAmECAkAYvcIECBAgQCBOQACIs1eZAAECBAiECQgAYfQKEyBAgACBOAEBIM5eZQIECBAgECYgAITRK0yAAAECBOIEBIA4e5UJECBAgECYgAAQRq8wAQIECBCIExAA4uxVJkCAAAECYQICQBi9wgQIECBAIE5AAIizV5kAAQIECIQJCABh9AoTIECAAIE4AQEgzl5lAgQIECAQJiAAhNErTIAAAQIE4gQEgDh7lQkQIECAQJhAXAAoirBJK0yAAAECBCZdIC4ATLq8+RMgQIAAgUABASAQX2kCBAgQIBAlIABEyatLgAABAgQCBQSAQHylCRAgQIBAlIAAECWvLgECBAgQCBQQAALxlSZAgAABAlECAkCUvLoECBAgQCBQQAAIxFeaAAECBAhECQgAUfLqEiBAgACBQAEBIBBfaQIECBAgECUQFgBcCDhqydUlQIAAAQIphQUA+AQIECBAgECcgAAQZ68yAQIECBAIExAAwugVJkCAAAECcQICQJy9ygQIECBAIExAAAijV5gAAQIECMQJCABx9ioTIECAAIEwAQEgjF5hAgQIECAQJyAAxNmrTIAAAQIEwgQEgDB6hQkQIECAQJyAABBnrzIBAgQIEAgTEADC6BUmQIAAAQJxAmEBoEw+DSBu2VUmQIAAgUkXCAsAkw5v/gQIECBAIFJAAIjUV5sAAQIECAQJCABB8MoSIECAAIFIAQEgUl9tAgQIECAQJCAABMErS4AAAQIEIgUEgEh9tQkQIECAQJCAABAErywBAgQIEIgUEAAi9dUmQIAAAQJBAgJAELyyBAgQIEAgUkAAiNRXmwABAgQIBAmEBQAXAg5acWUJECBAgEAWCAsA9AkQIECAAIE4AQEgzl5lAgQIECAQJiAAhNErTIAAAQIE4gQEgDh7lQkQIECAQJiAABBGrzABAgQIEIgTEADi7FUmQIAAAQJhAgJAGL3CBAgQIEAgTkAAiLNXmQABAgQIhAkIAGH0ChMgQIAAgTgBASDOXmUCBAgQIBAmIACE0StMgAABAgTiBMICQFH4NIC4ZVeZAAECBCZdICwATDq8+RMgQIAAgUgBASBSX20CBAgQIBAkIAAEwStLgAABAgQiBQSASH21CRAgQIBAkIAAEASvLAECBAgQiBQQACL11SZAgAABAkECAkAQvLIECBAgQCBSQACI1FebAAECBAgECQgAQfDKEiBAgACBSAEBIFJfbQIECBAgECQQFwBcCThoyZUlQIAAAQIpxQUA+gQIECBAgECYgAAQRq8wAQIECBCIExAA4uxVJkCAAAECYQICQBi9wgQIECBAIE5AAIizV5kAAQIECIQJCABh9AoTIECAAIE4AQEgzl5lAgQIECAQJiAAhNErTIAAAQIE4gQEgDh7lQkQIECAQJiAABBGrzABAgQIEIgTEADi7FUmQIAAAQJhAnEBoPRhAGGrrjABAgQITLxAXACYeHoABAgQIEAgTkAAiLNXmQABAgQIhAkIAGH0ChMgQIAAgTgBASDOXmUCBAgQIBAmIACE0StMgAABAgTiBASAOHuVCRAgQIBAmIAAEEavMAECBAgQiBMQAOLsVSZAgAABAmECAkAYvcIECBAgQCBOQACIs1eZAAECBAiECcQFAFcCDlt0hQkQIECAQFwAYE+AAAECBAiECQgAYfQKEyBAgACBOAEBIM5eZQIECBAgECYgAITRK0yAAAECBOIEBIA4e5UJECBAoAkCE3pSugDQhB8+PRAgQIAAgTELCABjBleOAAECBAg0QUAAaMIq6IEAAQIECIxZQAAYM7hyBAgQIECgCQICQBNWQQ8ECBAgQGDMAgLAmMGVI0CAAAECTRAICwBFMaHvu2jCquuBAAECBCZeICwATLw8AAIECBAgECggAATiK02AAAECBKIEBIAoeXUJECBAgECggAAQiK80AQIECBCIEhAAouTVJUCAAAECgQICQCC+0gQIECBAIEpAAIiSV5cAAQIECAQKCACB+EoTIECAAIEoAQEgSl5dAgQIECAQKCAABOIrTYAAAQIEogTCAkBZRk1ZXQIECBAgQCAsAKAnQIAAAQIE4gQEgDh7lQkQIECAQJiAABBGrzABAgQIEIgTEADi7FUmQIAAAQJhAgJAGL3CBAgQIEAgTkAAiLNXmQABAgQIhAkIAGH0ChMgQIAAgTgBASDOXmUCBAgQIBAmIACE0StMgAABAgTiBASAOHuVCRAgQIBAmIAAEEavMAECBAgQiBMICwBFUcTNWmUCBAgQIDDhAmEBYMLdTZ8AAQIECIQKCACh/IoTIECAAIEYAQEgxl1VAgQIECAQKiAAhPIrToAAAQIEYgQEgBh3VQkQIECAQKiAABDKrzgBAgQIEIgREABi3FUlQIAAAQKhAgJAKL/iBAgQIEAgRkAAiHFXlQABAgQIhAoIAKH8ihMgQIAAgRiBsADgQsAxC64qAQIECBCoBMICAH4CBAgQIEAgTkAAiLNXmQABAgQIhAkIAGH0ChMgQIAAgTgBASDOXmUCBAgQIBAmIACE0StMgAABAgTiBASAOHuVCRAgQIBAmIAAEEavMAECBAgQiBMQAOLsVSZAgAABAmECAkAYvcIECBAgQCBOQACIs1eZAAECBAiECQgAYfQKEyBAgACBOIGwAFAmnwYQt+wqEyBAgMCkC4QFgEmHN38CBAgQIBApMBVZXO36Baa6w/Smix+rf+AxjPiXu85New9tGkOl40u89sz/lk6f3nf8Nxp+z665V6VHDl8R0uXL99+bth96MKT2eooemj4nfem8t69niDU/d3F+mJ7+Vm/Nz4984nf9jZnU6dpzG7kGddcWAOoWDR5vqjNMV1y0J7iLtZV/9OltYQHgldvuTufOfnNtjQc+a1h2wgLA+Yf/Kl2x547A2a+t9FObXxYaAPbsXlpb48HPOu/CKgAEN6F8rQIOAdTKaTACBAgQINAOAQGgHeukSwIECBAgUKuAAFArp8EIECBAgEA7BASAdqyTLgkQIECAQK0CAkCtnAYjQIAAAQLtEBAA2rFOuiRAgAABArUKCAC1chqMAAECBAi0QyAsABSuJ9GOnxBdEiBAgMCGFAgLABtS06QIECBAgEBLBASAliyUNgkQIECAQJ0CAkCdmsYiQIAAAQItERAAWrJQ2iRAgAABAnUKCAB1ahqLAAECBAi0REAAaMlCaZMAAQIECNQpIADUqWksAgQIECDQEgEBoCULpU0CBAgQIFCngABQp6axCBAgQIBASwQEgJYslDYJECBAgECdAgJAnZrGIkCAAAECLREIDAA+DKAlPyPaJECAAIENKBAYADagpikRIECAAIGWCAgALVkobRIgQIAAgToFBIA6NY1FgAABAgRaIiAAtGShtEmAAAECBOoUEADq1DQWAQIECBBoiYAA0JKF0iYBAgQIEKhTQACoU9NYBAgQIECgJQICQEsWSpsECBAgQKBOAQGgTk1jESBAgACBlggIAC1ZKG0SIECAAIE6BQSAOjWNRYAAAQIEWiIgALRkobRJgAABAgTqFBAA6tQ0FgECBAgQaImAANCShdImAQIECBCoU0AAqFPTWAQIECBAoCUCAkBLFkqbBAgQIECgTgEBoE5NYxEgQIAAgZYICAAtWShtEiBAgACBOgUEgDo1jUWAAAECBFoiIAC0ZKG0SYAAAQIE6hQQAOrUNBYBAgQIEGiJgADQkoXSJgECBAgQqFMgMAAUdc7DWAQIECBAgMApCAQGgFPo0kMJECBAgACBWgWmah3NYOECZSrSnme3hPexlgYWe921PK2W5zyzdH4qU/vy8KH+WbXMfy2DHJo+J+3Z8oq1PDX0OXs3XRBWv9Mt0patcT/n65l4p33/eaxnuhPxXAFggy1ztRH9nbtftcFmNfrp/Pcn/v7oi2ywCve/+G2p+uO2eoHTz+imS65sZ0Bf/Sw9si0CMl1bVkqfBAgQIECgRgEBoEZMQxEgQIAAgbYICABtWSl9EiBAgACBGgUEgBoxDUWAAAECBNoiIAC0ZaX0SYAAAQIEahQQAGrENBQBAgQIEGiLgADQlpXSJwECBAgQqFEgLAAUrgRc4zIaigABAgQInJpAWAA4tTY9mgABAgQIEKhTQACoU9NYBAgQIECgJQICQEsWSpsECBAgQKBOAQGgTk1jESBAgACBlggIAC1ZKG0SIECAAIE6BQSAOjWNRYAAAQIEWiIgALRkobRJgAABAgTqFBAA6tQ0FgECBAgQaImAANCShdImAQIECBCoU0AAqFPTWAQIECBAoCUCAkBLFkqbBAgQIECgToGwAFAmHwZQ50IaiwABAgQInIpAWAA4lSY9lgABAgQIEKhXQACo19NoBAgQIECgFQICQCuWSZMECBAgQKBeAQGgXk+jESBAgACBVggIAK1YJk0SIECAAIF6BQSAej2NRoAAAQIEWiEgALRimTRJgAABAgTqFRAA6vU0GgECBAgQaIWAANCKZdIkAQIECBCoV2Cq3uFWP1o5HKR9Tz+y+id4JAECBAgQqFmg292c5g8upaX+oOaRTz7cMG8Hy3L8dY90FhYA+r359Bf33nqkD18JECBAgMDECQwH82FzdgggjF5hAgQIECAQJyAAxNmrTIAAAQIEwgQEgDB6hQkQIECAQJyAABBnrzIBAgQIEAgTEADC6BUmQIAAAQJxAgJAnL3KBAgQIEAgTEAACKNXmAABAgQIxAkIAHH2KhMgQIAAgTABASCMXmECBAgQIBAnIADE2atMgAABAgTCBASAMHqFCRAgQIBAnIAAEGevMgECBAgQCBMQAMLoFSZAgAABAnECAkCcvcoECBAgQCBMQAAIo1eYAAECBAjECQgAcfYqEyBAgACBMAEBIIxeYQIECBAgECcgAMTZq0yAAAECBMIEBIAweoUJECBAgECcgAAQZ68yAQIECBAIExAAwugVJkCAAAECcQICQJy9ygQIECBAIExAAAijV5gAAQIECMQJCABx9ioTIECAAIEwAQEgjF5hAgQIECAQJyAAxNmrTIAAAQIEwgQEgDB6hQkQIECAQJyAABBnrzIBAgQIEAgTEADC6BUmQIAAAQJxAlMXX/yyB7ZtO/3C2ZmZs+LaUJkAAQIECEyWwPz8Qnrm4IWp6BRjn/j83Nzjxa7DZTn2ygoSIECAAAECaff+XhoMYyAcAohxV5UAAQIECIQKCACh/IoTIECAAIEYAQEgxl1VAgQIECAQKiAAhPIrToAAAQIEYgQEgBh3VQkQIECAQKiAABDKrzgBAgQIEIgREABi3FUlQIAAAQKhAgJAKL/iBAgQIEAgRkAAiHFXlQABAgQIhAoIAKH8ihMgQIAAgRgBASDGXVUCBAgQIBAqIACE8itOgAABAgRiBASAGHdVCRAgQIBAqIAAEMqvOAECBAgQiBEQAGLcVSVAgAABAqECAkAov+IECBAgQCBGQACIcVeVAAECBAiECggAofyKEyBAgACBGAEBIMZdVQIECBAgECogAITyK06AAAECBGIEBIAYd1UJECBAgECogAAQyq84AQIECBCIERAAYtxVJUCAAAECoQICQCi/4gQIECBAIEZAAIhxV5UAAQIECIQKCACh/IoTIECAAIEYAQEgxl1VAgQIECAQKiAAhPIrToAAAQIEYgQEgBh3VQkQIECAQKhAFQDK0A4UJ0CAAAECkyoQtwUeVgHg8KS6mzcBAgQIEIgUGMYVP1wFgENx9VUmQIAAAQKTKVC9+C/D9gAUz3ZSkQ5MJr1ZEyBAgACBOIG4jX8VPMocAMr0SNz0VSZAgAABApMp0B+EvfxPRVE+0skJ5OHJpDdrAgQIECAQJ9AbxgWAsige7nSK9JW46atMgAABAgQmU6AXuAegU6avdobDdPdk0ps1AQIECBCIE1jsxe0B6AzKL3S2n54eytN/Io5AZQIECBAgMFkC1QmAi2F7AMrHX3/RzFc7RT4TIL8T4H9OFr3ZEiBAgACBOIHFfhn2FsAiFf+j2vYvXwo4J5HfjWNQmQABAgQITJbA4aXASwAVneVt/nIA2L4l3Vmk9ORk8ZstAQIECBAYv0C1+38uLgDsmX2i+8fVrJcDQN4V0M/XA/jE+BlUJECAAAECkyUw1xumqHcAFkW69aqril4lvhwAluk76d/lr0vLf/d/BAgQIECAwEgEnp0P2/2/WJT9alu/fHs+AFywpdid7/n4t+/3hQABAgQIEKhZoNr1vxR19n+ZPvbG7VseOzKl5wNAdUe3kz6Uv8wd+aavBAgQIECAQD0C1bv+D8S9+j886PZvOXomxwSAl24uHs0nA1YhwI0AAQIECBCoUeBQ3vhHvfrPb/37wDXnb9l19HSOCQDVNw5sSf82f/ny0Q/ydwIECBAgQGDtAoN81t/++cHaB1jfMx+afXLq+WP/R4Y6LgBcWhRL+R0Bfzc/YP7Ig3wlQIAAAQIE1i7w9KFBCjr1byGf+f8zR878P3oGxwWA6pvbTy/+Mh8K+CdHP9DfCRAgQIAAgVMXqF75L+Qr/wXd/uGbLph5YKXaKwaA6oEXnFb8Zm73P6z0JPcRIECAAAECJxeozvqPOvEvv/L/8NXbZ37rRF2eMABUT8hXCHxP/vJ7J3qy+wkQIECAAIGVBapX/U8fjjruX9zx2PnT/2jlzp679wUDQL5C4HBhS7oxP/QzLzSI7xEgQIAAAQLfEag2/nsO5ovshuz5Lz/z7MLUO24oihdMH/lQ/8lvZVl2d88tHw5498kf7REECBAgQGByBapL/VYn/UVs/PNG/dbZJ6dvWumkv/9/RVYVAKon5RBQ5BDwy/mv1Z8X3HNQPd6NAAECBAhMmsCzC8O0fy5v/Mc/8Vy0eP+btk99sPqo39WUX3UAODLYroPltXnz/zv539915D5fCRAgQIDAJAtUr/afycf7gz7md09RFje+6cLp5U/5W+06nPIr+e1bi89OD9PlKX+iUC6yqpSx2mY8jgABAgQItE2gOtP/Wwf6ERv/Mm+FPz6cmv6bp7rxr4xPeQ/A0Quza768Jl/Z4N/n+y4/+n5/J0CAAAECG12gl6/uty+/6p/vhbwWvj+/6v/HecP/ubU6rysAHCn62KHyB4dF+pX879cfuc9XAgQIECCwEQV6+dP8qo/0rXb3B2z6HyiL8parz5/51GqP9Z9oDWoJAEcGf/RgeWmnm27Mpx+8M6Ocd+R+XwkQIECAQJsFqmP8h/PZ/XP5JL/58V/Vb2/eWH+qHBa3Xn3R9Bfqcqw1ABxpKr9jYOqx+XRVjkZ/O993bXa7LH998ZHv+0qAAAECBJoskPfup6W8oV/Mf+b7w+WvY3y5vycfoH8wH6X/bN6e/snjF0zfd7L39K/FciQBYKVGHt1fvqgzky7OewfOyYcLtnbKtG2lx7mPQNMEvrknfTD/Lji3aX3p58QCnSLt2X5u+pcnfoTvEPiOwKHF4ZV5u9TNG/3F/mB4eLGXnlwaloe+84jR/q0zLJ9Nne7BYTl8Og2nv/Z9FxX7RlvxudHHFgDGMRk1CNQt8F8fLC/olumYz9Cuu4bxRiPQ7aeLrruq+OZoRjcqgfYLnPLbANs/ZTMgsHqBvKfq+1f/aI9skkB/Kr25Sf3ohUDTBASApq2IfholkP8DuaZRDWlm1QL5cKO1W7WWB06igAAwiatuzqsWyGf+XrvqB3tgswQKa9esBdFN0wScA9C0FdFPYwQc/2/MUqy5EecBrJnOEydAwB6ACVhkU1ybgOP/a3Nr0rOcB9Ck1dBL0wQEgKatiH4aI5D/43AMuTGrsbZGnAewNjfPmgwBAWAy1tks1yDg+P8a0Jr2FOcBNG1F9NMgAecANGgxtNIcAcf/m7MW6+3EeQDrFfT8jSpgD8BGXVnzWpeA4//r4mvUk50H0Kjl0EyDBASABi2GVpoj4Ph/c9ZivZ04D2C9gp6/UQUEgI26sua1LgHH/9fF16wnOw+gWeuhm8YIOAegMUuhkaYIOP7flJWorw/nAdRnaaSNI2APwMZZSzOpScDx/5ogGzSM8wAatBhaaYyAANCYpdBIUwQc/2/KStTXh/MA6rM00sYREAA2zlqaSU0Cjv/XBNmkYZwH0KTV0EtDBJwD0JCF0EYzBBz/b8Y6jKIL5wGMQtWYbRawB6DNq6f32gUc/6+dtDEDOg+gMUuhkYYICAANWQhtNEPA8f9mrMMounAewChUjdlmAQGgzaun99oFHP+vnbQ5AzoPoDlroZNGCDgHoBHLoIkmCDj+34RVGG0PzgMYra/R2yVgD0C71ku3IxRw/H+EuA0Z2nkADVkIbTRCQABoxDJoogkCjv83YRVG20Ne42tHW8HoBNojIAC0Z610OmIBx/9HDNyA4cuUrmlAG1og0AgB5wA0Yhk0ES3g+H/0CoyvvvMAxmetUrMF7AFo9vrobkwCjv+PCboBZZwH0IBF0EIjBASARiyDJqIF8n8Idg1HL8KY6rsewJiglWm8gADQ+CXS4DgEHP8fh3JDargeQEMWQhvRAs4BiF4B9cMFHP8PX4KxN+A8gLGTK9hAAXsAGrgoWhqvgOP/4/VuQjXnATRhFfQQLTAV3YD6BKIFztw2eF0q02P5LWIvyV+70f1MSv3+MKW5uSDuIv1gdv7Pk2JtngRWEnAIYCUV902MwG1l2X3p7t4TecLnTMykGzLRHLjS3r3TKZ9/MfZb/sX31P2XpZfsLIocQ9wITKaAQwCTue5m/W2Bl+zuX53/auMf8BNRvfqYmY7Z/ubMce5r7k+vC5i2kgQaIyAANGYpNBIh0EnljRF11XxOYHY24OX/t/G7RbL2fhAnWsAhgIle/sme/F17ytOnF3vfygpbJ1sicPZ5+793/1QaDkN+FR3I7wZ46XVXFXOBAkoTCBOwByCMXuFoganF3k25Bxv/yIXI2/1Nm2IOA+RpnzHopp+LnL7aBCIFQmJ35ITVJlAJ3PXX5abpqf43UirPJxIrUJ0EuG/fdBrGHA3YtTSdXnHDpcVSrILqBMYvYA/A+M1VbIDATLf/Czb+DViI3EJR7QXYPIhqZvtsL90cVVxdApEC9gBE6qsdInDPI+V5/eneV3PxM0MaUHRFgX35XIDBIORX0r6lYbrkhiuLp1ZszJ0ENqiAPQAbdGFN68QCeeP/a/m7Nv4nJgr5zmmnhe0FeNFMJ/2bkEkrSiBQQAAIxFd6/AJ/unvxJ3PVnx5/ZRVPJjAzXUaeEPjO2x8o33GyHn2fwEYSCNnftpEAzaU9Ap9/dOHlRafz57njM9rT9eR1uv/AVOr3Q3417R0M05U/cWXx6OSpm/EkCtgDMImrPoFzvufr5ba88b89T93Gv+Hrv23rIHXyJzQF3M7qdtKdt91X+hkJwFdy/AICwPjNVRyzwJ1fL2d7m3q/n8t+z5hLK7cGgWrjX4WA6t0BAbdXz3bTJ297qJwJqK0kgbEKCABj5VZs3AIP5V/k22b7v5e3JT8w7trqrV1gaqoKAf2QEFAW6Udml9LtVXBc+ww8k0DzBWIydvNddLgBBKrd/v3NvU/lj/j9oQ0wnYmcQnUuwLMHq0sFB0y/SHcuTaV35IsEHQqoriSBkQsIACMnViBC4O5dc+cP09Snc+0rIuqrWZ9A9TkBB57tRl0j4IHUTW/d8T3FrvpmZCQCzRBwCKAZ66CLGgU+983FHXnj/0Ae0sa/RteooapzAs48ox/1FsHL0yD9+R0Plm+Nmr+6BEYlYA/AqGSNO3aBu3eVZ5Wp96v5/PF3jb24gmMRWFrspENz3YhDAtXbEj4y1Unve8trin1jmawiBEYsIACMGNjwoxe4qyynph7rvaso0y252tmjr6hCpED14UFzOQTML4TswNyTTxL8572H02/fcEMRdunCSH+1N46AALBx1nLiZlKd4b9vW+/GPPH35T/fPXEAEz7hQT43YGG+kxbyXoEqFIzzlst9PR+Z+NDiTPqkTxIcp7xadQoIAHVqGmssAl94dPHS1EnvzJ8j97O54LljKapIYwWqjf9iDgELeY9Af/wfJrQn/xL97XKYPr7jyuLLjUXSGIEVBASAFVDc1SyBe3bPXdAvu99bpOLN+Xf9W3J3Xu03a4ka0031joHFXpH6S/lPfgthtZdgjLdv5IsX/VF+2+nn88GJe6+7vHhsjLWVInDKAmP9r+OUu/OEZYFP31duGXbT95edvOEr0+aNyjI1Nfzubre8OB/L35Q6xab8y/SsIpVn5a+nbdQ5m9doBarLB5Q5BORX6Pk/neofaTkUjOljhw/nintzzX35vIH5/HUh/8L9WirS/6la2ZC3ap7D9I2l+XTXDW8s5jfkHDfQpASABi/mnfeU23qb0r/Iv7Pek9u0EWzwWmmNAIFjBKrw8+vFpnTL215ZHDzmO/7RGAEBoDFLcWwjf/hg+bJhmXcnpvTqY7/jXwQIEGiNwEP5HI23/PgVxf9tTccT1KgA0MDFrj6NbGYq3ZNbe2UD29MSAQIEVi9QpK8s9dIbbriqOLD6J3nkOARC3kg7jom1uUbe+H8g92/j3+ZF1DsBAs8JlOlV+Xfav8LRPAF7ABq2Jn9wf3lmPuntidyWTyJr2NpohwCBNQssLvXTefYCrNlvJE+0B2AkrGsfNG/8/05+to3/2gk9kwCB5gnMznbTDzevrcnuSABo2PrnM/4vblhL2iFAgMD6BYp0yfoHMUKdAgJAnZp1jLWB3+dfB48xCBBop0B+V9OWdna+cbsWAJq2tkV6vGkt6YcAAQLrFegU6VvrHcPz6xUQAOr1XPdo+Ypln1v3IAYgQIBAwwTyxzR8tmEtTXw7AkDDfgTefmXxYG7pSw1rSzsECBBYu0CR7nv7ZcVfrX0AzxyFgAAwCtV1jjkcpvfmIXzW+DodPZ0AgUYIVL/LfrERnWjiGAEB4BiOZvwj7wX4X/nymf80d5PfFOBGgACB1gqU+a3N791xWfH51s5gAzfuQkANXtw/eLD8qWKYfj1/etjZDW5TawQIEDheoEzP5N9d79lxefG7x3/TPU0QEACasAov0EN1ZcD8H9FNeaF+LD+sukaAt9K8gJdvESAQKjCXd1s+nHctfya/7e8/5Q8B2h/ajeIECBAgQIAAAQIECBAgQIAAAQIECBAgQIAAAQIECBAgQIAAAQIECBAgQIAAAQIECBAgQIAAAQIECBAgQIAAAQIECBAgQIAAAQIECBAgQIAAAQIECBAgQIAAAQIECBAgQIAAAQIECBAgQIAAAQIECBAgQIAAAQIECBAgQIAAAQIECBAgQIAAAQIECBAgQIAAAQIECBAgQIAAAQIECBAgQIAAAQIECBAgQIAAAQIECBAgQIAAAQIECBAgQIAAAQIECBAgQIAAAQIECBAgQIAAAQIECBAgQIAAAQIECBAgQIAAAQIECBAgQIAAAQIECBAgQIBAkwT+H+uGZbmlW1n4AAAAAElFTkSuQmCC;" vertex="1" parent="1">
          <mxGeometry x="690" y="195" width="62" height="62" as="geometry" />
        </mxCell>
        <mxCell id="R886sbOOun7oYMftV1Vu-18" value="모니터" style="text;html=1;strokeColor=none;fillColor=none;align=center;verticalAlign=middle;whiteSpace=wrap;rounded=0;" vertex="1" parent="1">
          <mxGeometry x="690" y="165" width="60" height="30" as="geometry" />
        </mxCell>
        <mxCell id="R886sbOOun7oYMftV1Vu-19" value="" style="shape=image;verticalLabelPosition=bottom;labelBackgroundColor=default;verticalAlign=top;aspect=fixed;imageAspect=0;image=data:image/png,iVBORw0KGgoAAAANSUhEUgAAAgAAAAIACAYAAAD0eNT6AAAMbWlDQ1BJQ0MgUHJvZmlsZQAASImVVwdYU8kWnluSkJAQIICAlNCbIFIDSAmhBZBeBBshCSSUGBOCir0sKrh2EQEbuiqi2FZA7NiVRbH3xYKKsi7qYkPlTUhA133le+f75t4/Z878p9yZ3HsAoH/gSaV5qDYA+ZICWUJ4MHN0WjqT9BQgAAMUQAB0Hl8uZcfFRQMoA/e/y7sb0BrKVWcl1z/n/6voCoRyPgDIWIgzBXJ+PsTHAcCr+FJZAQBEpd5qcoFUiWdDrCeDAUK8SomzVXi7Emeq8OF+m6QEDsSXAdCg8niybAC07kE9s5CfDXm0PkPsKhGIJQDQh0EcwBfxBBArYx+Wnz9Ricshtof2UohhPICV+R1n9t/4Mwf5ebzsQazKq180QsRyaR5v6v9Zmv8t+XmKAR+2cFBFsogEZf6whrdyJ0YpMRXiLklmTKyy1hB/EAtUdQcApYgUEckqe9SEL+fA+gEDiF0FvJAoiE0gDpPkxUSr9ZlZ4jAuxHC3oFPEBdwkiA0hXiiUhyaqbTbKJiaofaH1WTIOW60/x5P1+1X6eqDITWar+d+IhFw1P6ZVJEpKhZgCsXWhOCUGYi2IXeS5iVFqm5FFIk7MgI1MkaCM3xriBKEkPFjFjxVmycIS1PYl+fKBfLGNIjE3Ro33FYiSIlT1wU7xef3xw1ywy0IJO3mARygfHT2Qi0AYEqrKHXsulCQnqnk+SAuCE1RrcYo0L05tj1sK88KVekuIPeSFieq1eEoB3JwqfjxLWhCXpIoTL8rhRcap4sGXgWjAASGACRRwZIKJIAeIW7sauuAv1UwY4AEZyAZC4KzWDKxI7Z+RwGsiKAJ/QCQE8sF1wf2zQlAI9V8GtaqrM8jqny3sX5ELnkKcD6JAHvyt6F8lGfSWAp5Ajfgf3nlw8GG8eXAo5/+9fkD7TcOGmmi1RjHgkUkfsCSGEkOIEcQwogNujAfgfng0vAbB4YazcJ+BPL7ZE54S2giPCNcJ7YTbE8RzZT9EOQq0Q/4wdS0yv68Fbgs5PfFg3B+yQ2bcADcGzrgH9MPGA6FnT6jlqONWVoX5A/ffMvjuaajtyK5klDyEHES2/3GllqOW5yCLstbf10cVa+ZgvTmDMz/653xXfQG8R/1oiS3E9mNnsRPYeeww1gCY2DGsEWvBjijx4O560r+7Brwl9MeTC3nE//DHU/tUVlLuWuva6fpZNVcgnFKgPHicidKpMnG2qIDJhm8HIZMr4bsMY7q5urkBoHzXqP6+3sb3v0MQg5Zvunm/A+B/rK+v79A3XeQxAPZ6w+N/8JvOngWAjiYA5w7yFbJClQ5XXgjwX4IOT5oRMANWwB7m4wa8gB8IAqEgEsSCJJAGxsMqi+A+l4HJYDqYA4pBKVgGVoMKsAFsBtvBLrAPNIDD4AQ4Ay6Cy+A6uAt3Twd4CbrBO9CLIAgJoSEMxAgxR2wQJ8QNYSEBSCgSjSQgaUgGko1IEAUyHZmHlCIrkApkE1KD7EUOIieQ80gbcht5iHQib5BPKIZSUT3UFLVFh6MslI1GoUnoODQbnYQWofPRJWg5Wo3uROvRE+hF9Drajr5EezCAaWIGmAXmjLEwDhaLpWNZmAybiZVgZVg1Voc1wed8FWvHurCPOBFn4EzcGe7gCDwZ5+OT8Jn4YrwC347X46fwq/hDvBv/SqARTAhOBF8ClzCakE2YTCgmlBG2Eg4QTsOz1EF4RyQSDYh2RG94FtOIOcRpxMXEdcTdxOPENuJjYg+JRDIiOZH8SbEkHqmAVExaS9pJOka6QuogfdDQ1DDXcNMI00jXkGjM1SjT2KFxVOOKxjONXrI22YbsS44lC8hTyUvJW8hN5EvkDnIvRYdiR/GnJFFyKHMo5ZQ6ymnKPcpbTU1NS00fzXhNseZszXLNPZrnNB9qfqTqUh2pHOpYqoK6hLqNepx6m/qWRqPZ0oJo6bQC2hJaDe0k7QHtgxZDy0WLqyXQmqVVqVWvdUXrFZ1Mt6Gz6ePpRfQy+n76JXqXNlnbVpujzdOeqV2pfVD7pnaPDkNnhE6sTr7OYp0dOud1nuuSdG11Q3UFuvN1N+ue1H3MwBhWDA6Dz5jH2MI4zejQI+rZ6XH1cvRK9Xbptep16+vqe+in6E/Rr9Q/ot9ugBnYGnAN8gyWGuwzuGHwaYjpEPYQ4ZBFQ+qGXBny3nCoYZCh0LDEcLfhdcNPRkyjUKNco+VGDUb3jXFjR+N448nG641PG3cN1RvqN5Q/tGTovqF3TFATR5MEk2kmm01aTHpMzUzDTaWma01PmnaZGZgFmeWYrTI7atZpzjAPMBebrzI/Zv6Cqc9kM/OY5cxTzG4LE4sIC4XFJotWi15LO8tky7mWuy3vW1GsWFZZVqusmq26rc2tR1lPt661vmNDtmHZiGzW2Jy1eW9rZ5tqu8C2wfa5naEd167Irtbunj3NPtB+kn21/TUHogPLIddhncNlR9TR01HkWOl4yQl18nISO61zahtGGOYzTDKsethNZ6oz27nQudb5oYuBS7TLXJcGl1fDrYenD18+/Ozwr66ernmuW1zvjtAdETli7oimEW/cHN34bpVu19xp7mHus9wb3V97OHkIPdZ73PJkeI7yXODZ7PnFy9tL5lXn1elt7Z3hXeV9k6XHimMtZp3zIfgE+8zyOezz0dfLt8B3n++ffs5+uX47/J6PtBspHLll5GN/S3+e/yb/9gBmQEbAxoD2QItAXmB14KMgqyBB0NagZ2wHdg57J/tVsGuwLPhA8HuOL2cG53gIFhIeUhLSGqobmhxaEfogzDIsO6w2rDvcM3xa+PEIQkRUxPKIm1xTLp9bw+2O9I6cEXkqihqVGFUR9SjaMVoW3TQKHRU5auWoezE2MZKYhlgQy41dGXs/zi5uUtyheGJ8XHxl/NOEEQnTE84mMhInJO5IfJcUnLQ06W6yfbIiuTmFnjI2pSblfWpI6orU9tHDR88YfTHNOE2c1phOSk9J35reMyZ0zOoxHWM9xxaPvTHObtyUcefHG4/PG39kAn0Cb8L+DEJGasaOjM+8WF41ryeTm1mV2c3n8NfwXwqCBKsEnUJ/4Qrhsyz/rBVZz7P9s1dmd4oCRWWiLjFHXCF+nRORsyHnfW5s7rbcvrzUvN35GvkZ+QclupJcyamJZhOnTGyTOkmLpe2TfCetntQti5JtlSPycfLGAj34Ud+isFf8pHhYGFBYWfhhcsrk/VN0pkimtEx1nLpo6rOisKJfpuHT+NOap1tMnzP94Qz2jE0zkZmZM5tnWc2aP6tjdvjs7XMoc3Ln/DbXde6KuX/NS53XNN90/uz5j38K/6m2WKtYVnxzgd+CDQvxheKFrYvcF61d9LVEUHKh1LW0rPTzYv7iCz+P+Ln8574lWUtal3otXb+MuEyy7MbywOXbV+isKFrxeOWolfWrmKtKVv21esLq82UeZRvWUNYo1rSXR5c3rrVeu2zt5wpRxfXK4MrdVSZVi6rerxOsu7I+aH3dBtMNpRs+bRRvvLUpfFN9tW112Wbi5sLNT7ekbDn7C+uXmq3GW0u3ftkm2da+PWH7qRrvmpodJjuW1qK1itrOnWN3Xt4Vsquxzrlu026D3aV7wB7Fnhd7M/be2Be1r3k/a3/drza/Vh1gHCipR+qn1nc3iBraG9Ma2w5GHmxu8ms6cMjl0LbDFocrj+gfWXqUcnT+0b5jRcd6jkuPd53IPvG4eULz3ZOjT147FX+q9XTU6XNnws6cPMs+e+yc/7nD533PH7zAutBw0etifYtny4HfPH870OrVWn/J+1LjZZ/LTW0j245eCbxy4mrI1TPXuNcuXo+53nYj+catm2Nvtt8S3Hp+O+/26zuFd3rvzr5HuFdyX/t+2QOTB9W/O/y+u92r/cjDkIctjxIf3X3Mf/zyifzJ5475T2lPy56ZP6t57vb8cGdY5+UXY150vJS+7O0q/kPnj6pX9q9+/TPoz5bu0d0dr2Wv+94sfmv0dttfHn8198T1PHiX/673fckHow/bP7I+nv2U+ulZ7+TPpM/lXxy+NH2N+nqvL7+vT8qT8fo/BTA40KwsAN5sA4CWBgAD9m2UMapesF8QVf/aj8B/wqp+sV+8AKiD3+/xXfDr5iYAe7bA9gvy02GvGkcDIMkHoO7ug0Mt8ix3NxUXFfYphAd9fW9hz0ZaCcCXZX19vdV9fV82w2Bh73hcoupBlUKEPcNG7pfM/Ezwb0TVn36X4493oIzAA/x4/xfwk5CLtzxSzQAAADhlWElmTU0AKgAAAAgAAYdpAAQAAAABAAAAGgAAAAAAAqACAAQAAAABAAACAKADAAQAAAABAAACAAAAAAAoMJe/AAAk7klEQVR4Ae3df6xfZX0H8HO+97ZFoUYwhWH2hwsbEhMwU4wz/pjgtBQQhzO6EE38R1S0LW4FddL5lRacwIReFBSTxbhkWXDOwqQ/JlrjDMvmcLEkDMxwWUImFkWx/Oiv7/fsuSBRsE3PKc85zznP99UE6733uZ/P87w+vff7vuf74xaFPwQIECBAgAABAgQIECBAgAABAgQIECBAgAABAgQIECBAgAABAgQIECBAgAABAgQIECBAgAABAgQIECBAgAABAgQIECBAgAABAgQIECBAgAABAgQIECBAgAABAgQIECBAgAABAgQIECBAgAABAgQIECBAgAABAgQIECBAgAABAgQIECBAgAABAgQIECBAgAABAgQIECBAgAABAgQIECBAgAABAgQIECBAgAABAgQIECBAgAABAgQIECBAgAABAgQIECBAgAABAgQIECBAgAABAgQIECBAgAABAgQIECBAgAABAgQIECBAgAABAgQIECBAgAABAgQIECBAgAABAgQIECBAgAABAgQIECBAgAABAgQIECBAgAABAgQIECBAgAABAgQIECBAgAABAgQIECBAgAABAgQIECBAgAABAgQIECBAgAABAgQIECBAgAABAgQIECBAgAABAgQIECBAgAABAgQIECBAgAABAgQIECBAgAABAgQIECBAgAABAgQIECBAgAABAgQIECBAgAABAgQIECBAgAABAgQIECBAgAABAgQIECBAgAABAgQIECBAgAABAgQIECBQS6CstcoiAgQGJbBmw9Yq5oYX1q/yvSImqFoEeiAw6sEebIEAAQIECBDoWEAA6BhcOwIECBAg0AcBAaAPU7AHAgQIECDQsYAA0DG4dgQIECBAoA8CAkAfpmAPBAgQIECgYwEBoGNw7QgQIECAQB8EBIA+TMEeCBAgQIBAxwICQMfg2hEgQIAAgT4ICAB9mII9ECBAgACBjgUEgI7BtSNAgAABAn0QEAD6MAV7IECAAAECHQsIAB2Da0eAAAECBPogIAD0YQr2QIAAAQIEOhYQADoG144AAQIECPRBQADowxTsgQABAgQIdCwgAHQMrh0BAgQIEOiDgADQhynYAwECBAgQ6FhAAOgYXDsCBAgQINAHAQGgD1OwBwIECBAg0LGAANAxuHYECBAgQKAPAgJAH6ZgDwQIECBAoGMBAaBjcO0IECBAgEAfBASAPkzBHggQIECAQMcCAkDH4NoRIECAAIE+CAgAfZiCPRAgQIAAgY4FBICOwbUjQIAAAQJ9EBAA+jAFeyBAgAABAh0LCAAdg2tHgAABAgT6ICAA9GEK9kCAAAECBDoWEAA6BteOAAECBAj0QUAA6MMU7IEAAQIECHQsIAB0DK4dAQIECBDog4AA0Icp2AMBAgQIEOhYQADoGFw7AgQIECDQBwEBoA9TsAcCBAgQINCxgADQMbh2BAgQIECgDwICQB+mYA8ECBAgQKBjAQGgY3DtCBAgQIBAHwQEgD5MwR4IECBAgEDHAgJAx+DaESBAgACBPggIAH2Ygj0QIECAAIGOBQSAjsG1I9CRwL6YfS4a7zgmZj21CBBILyAApJ+BHRBoQ+CRmEXLpY+9MGY9tQgQSC8gAKSfgR0QaENgd8yi8wfmTo9ZTy0CBNILCADpZ2AHBNoQ+FHMolVZvSVmPbUIEEgvIACkn4EdEIguUBXlDyIXPf9D422/G7mmcgQIJBQQABLia02gLYGyqO6JXHvJZFRdFbmmcgQIJBQQABLia02gLYFyWnwveu2yOH/1hq2XRK+rIAECSQQEgCTsmhJoV+Dx6sC/hA5Rnwq4uOOyKP5qzcZtl7a7e9UJEOhCIHw9+0OAQI4CazZs/XY412vbOFt4jMHm+UlxybXjs/67jfpqEiDQvoAA0L6xDgSSCKzZsG1tUVTXtdh8f6h9S3iGwOZqNHfndN/S+28YnxH19Qda3LvSBGZeQACY+X8CAHIVeN94+/FL56b3h/MtyfWMNc+1eFfIo+H+i5+VVfi7KB4MoeUHRTVafKDkvdPJaOdnxm/6v5q1LCOQjYAAkM0oHYTAbwqEB+3dEr7Iz/vNj3jP0wSq4p6yLHcUZbVj39zk9hs/eu7PnvZxbxDIUEAAyHCojkTgKYGLL9/6qmlZ3PHU2/6uJbA33HXy9RAIvnTsgd23jMdvj/5gylq7sIhAywICQMvAyhNILRAeDPitsIc/TL2PgfZ/sKzKGw/Mzy989i/+6KcDPYNtEziogABwUBbvJJCPwNqNt72uqkbfCify9X7kY30k4N24fzL99A3jcx448jI+k0B/BHxD6M8s7IRAawLhKsDfhuLvbK3B7BR+LBz16uMmu69018DsDD3Xk3ohoFwn61wEfk2gHC1ZF970wLZfMznC//vc8Hkff2jumDtXX76tlddYOMJ9+TQCjQVcAWhM5hMIDFNg7Ybt51bF9Nawe1/3cUYYnk1YXH/sdPclrgbEAVWlWwHfCLr11o1AUoG1l2/dVJXFmqSbyK/5d6fF6B2fWb/yf/I7mhPlLOAugJyn62wEniGw+NNqeK7715/xbm8+O4FXjIrpd9d8YtsZz66MzybQrYArAN1660YgucCF43967rK5+dvDF/+rkm8mrw3sK6ryXQt/edbNeR3LaXIVcAUg18k6F4FDCNw0fvNjSycHFl8d8LuHWOLdRyawNFxd+bvVG7a8/8g+3WcR6FbAFYBuvXUj0BuBdVdvP3rfnuk/hA2d1ZtNZbKR8DiLtddftmohk+M4RqYCrgBkOljHInA4gWsuWfloeD77W8LL3m4Ka6vDrffx+gLh2QGfDlcC3lb/M6wk0L2AKwDdm+tIoHcCF2/Y8sfTovybsLFje7e54W5obzEtVy18/Kwdwz2Cnecs4ApAztN1NgI1Ba5bf/bmuUn5u+EVAm4Kn+JqQE23wyxbVoyqr1w83vqiw6zzYQJJBFwBSMKuKYH+CjzxCndldXn45vD6/u5yUDu7Y8/xK15/03tP3z+oXdts9gICQPYjdkACRybwwcu3vHpUlOF1A4qzQ4UlR1bFZy0KhG+0V29av+pSGgT6JCAA9Gka9kKghwKrr9yyopwUf1oV5VvDN4zF1w5Y1sNt9n1LVVkWr9t02arv9H2j9jc7AgLA7MzaSQk8a4EPffrm5xx49HmvHpXV6VVVnRxCwSnhhu2E8KiB54fix4T/lj7rJpkWCN9s73r8+BUvd1dApgMe4LEEgAEOzZYJEKgvMB7fvPTHy5579Hw1OnFuUpw8KYvTwiv2nZHiakZZlOs2rT/rr+vv3koC7QkIAO3ZqkyAQI8F3v/Jrx07f2Du7eGb4HvDNn+/o60+cmAy/b0bxuc80FE/bQgcUkAAOCSNDxAgMBMCVVWuvnL72aNp9cnw/MdT2z5z+KbrAYFtI6tfS0AAqMVkEQECuQuMxzvmH5p//OJw98DGcNY2H+i4O7zmwouuHZ/1UO6mztdvAS8E1O/52B0BAh0JjMdnHFi47OxrwoMbF5/pcF+LbZdP5qo1LdZXmkAtAVcAajFZRIDALAm8b7z9+GVz09vCXQKnt3Hu8I13V3hGwG97RkAbumrWFXAFoK6UdQQIzIzA58Yrdy1buu/McOA72zh0CBbHL3twl9/C2AaumrUFBIDaVBYSIDBLAld9+C27901GZ4eX8fthG+cuq/JdbdRVk0BdAXcB1JWyjgCBmRS4+IptL5tOqzvC4WM/MHDPaLLnxOvG5/98JmEdOrmAKwDJR2ADBAj0WeC6j531vXDJfn0Lezyqmn/OG1qoqySBWgICQC0miwgQmGWBF0yOujac//uxDcIzDs6IXVM9AnUFBIC6UtYRIDCzAotPEazKqoWrAOWZM4vq4MkFPAYg+QhsgACBQQiEVwxcs3Hbf4a9vjTmfkej8oXhboYfxaypFoE6Aq4A1FGyhgABAmV43H5V3BQbYjKdtv7yw7H3rF4eAgJAHnN0CgIEOhAYTcu/D232RW1VlqdEracYgZoCAkBNKMsIECDwy9fv/7eYEuGqwskx66lFoK6AAFBXyjoCBAg8KfDNqBBl4QpAVFDF6goIAHWlrCNAgEAQCK8JsDMqRFWsiFpPMQI1BQSAmlCWESBAYFFgvirvjSyxPHI95QjUEhAAajFZRIAAgScFRtP9P45sIQBEBlWunoAAUM/JKgIECDwhsO+4ud2RKQSAyKDK1RMQAOo5WUWAAAECBLISEACyGqfDECDQusAjxfMi94h9RSHy9pTLVUAAyHWyzkWAQCsC8wdGx0cuLABEBlWunoAAUM/JKgIECDwhcKCsXhyZQgCIDKpcPQEBoJ6TVQQIEHhCYFSVUX8ZUCi6Cy2BFAICQAp1PQkQGKxA+I1AZ0befOzXFYi8PeVyFRAAcp2scxEgEF3gA1fe/oJQ9JVxC1cCQFxQ1WoKCAA1oSwjQIDA/IH97wgKS2JKhJcWFgBigqpVW0AAqE1lIQECMy1QhYv/ZXFhZINqMqni/m6ByBtULl8BASDf2ToZAQIRBdZu3PbmUC7uAwCr4r9uGJ/zQMRtKkWgtoAAUJvKQgIEZlVgPN4xHy7Vb4h9/mpUxf3VwrE3qF7WAgJA1uN1OAIEYgj8dO7xPw91TotR62k1qnLH0972BoEOBQSADrG1IkBgeAIf3Hjb6WVRfqKFne/Zu2T+Gy3UVZJALQEBoBaTRQQIzKLA2ituP2FUjW4OZ1/Wwvlvvekjb3y4hbpKEqglIADUYrKIAIFZE1g93vK8arr/tnDu32nj7NWo/FIbddUkUFdAAKgrZR0BAjMjsPiTfzlXLj5A7+VtHLoML//7gv3LtrdRW00CdQUEgLpS1hEgMBMCi/f5h5/8/zUctpUb/0XE8IyCG8bjMw7MBKhD9lZgvrc7szECBAh0KHDh5/9jybJdu/4svNrP4gP+2rjP/6nT/GL//GThqTf8TSCVwFyqxvoSIECgFwLhFf7Wzv/BeXOPPvbl8Gj/C8KeWv3BKPS47jMfO/trvTi7Tcy0QKv/0Gda1uEJEOi1wOIv9ll8bf9q47YLwyX5l4b75bv4s3vvpPx0F430IHA4AQHgcEI+ToDAoAXG45uXPrj0uOVz1eTEajo9OdzQL76gzxuKyf5Xhtf2j/qLfQ4HFXp//HPjlbsOt87HCXQhIAB0oawHgUwE1l29/ej9j01fU42Kl4UjvbgoylOKsloRHtV2bHj76PDf0r4d9aGwobnJ/ie21dFP+Yci+P6xk6OuP9QHvZ9A1wKJvx66Pq5+BAg0FVh8Slwx3X9BuEz+1vC5rwz/dfpTc9P99nT9tChHr124bOUdPd2fbc2ggCsAMzh0RyZQR2DtxtteV01H68JT4laF9b5X1EE71JqquGphvRv/Q/F4fxoBX9Rp3HUl0FuBizdsff20KC6vquK1hWuEMeb0neOmR62PUUgNAjEFfHnH1FSLwIAFLhrf9lvzc6OrwhHeGf7zvSHOLB+alNOXffayc/43TjlVCMQTcAUgnqVKBAYrsHrDlreVxegL4TXqnj/YQ/Rv43vKcnq+G//+DcaOnhQQAPxLIDDDAqsXtiwrfxGel14VFz3xArUzbBH56JNwDeWCTZed8+3IdZUjEE1AAIhGqRCBYQlcNN5xTPnwnq+EXb9pWDsfwm6rDy1cdvZXh7BTe5xdAffzze7snXyGBVZfuWVFOSm3BoLWfuHNjPJOwtMlP3D9+lWfn9HzO/aABASAAQ3LVgnEELj0U7cs37Nv6Y5Qy41/DNBf1dhblsW7Nl226su/epf/R6C/Au4C6O9s7IxAdIHF+/z3PlxuDoXd+MfV/Ul4wN+fuM8/Lqpq7QqM2i2vOgECfRJYfMBfuER9Zp/2lMFe/n00KV7hxj+DSc7YEdwFMGMDd9zZFXjyqX6ly9Px/glUZVVc//gJK9bd9N7Tn/xlA/Fqq0SgdQEBoHViDQikF7j4im0nTqfF3Z7nH20WO8Nr+7/fa/tH81QogYC7ABKga0mga4HpdHqNG/8o6o+GKp84brL7FW78o3gqklDAFYCE+FoT6ELgl6/tv/iof3+OXGB3eLGkz+6bjq793HjlriMv4zMJ9EfAswD6Mws7IdCKwOIv9mml8AwUDT8h7QoPmrxh//xk4caPnvuzGTiyI86QgAAwQ8N21NkTeOJX+i7+Vj9/mgjsDXeXfL0syy89vmLFZg/wa0Jn7ZAEBIAhTcteCTQUqKajdX6vXw20qri7GlXfLKpyx94l89+46SNvfLjGZ1lCYNACHgMw6PHZPIFDC6y94vYTqun++8OKWQ/6+4LBIyEI/Tzcj787/P2T8Pa9RVXdEy7v3zuZVDtvGJ/zwKElfYRAngKz/o0hz6k6FYFFgen+C8L/tvk1vnjDurkqi82jqvjekqNG919zycrFR8n7Q4DAAATa/OYwgOPbIoF8BcJPt29t63Th0uE/jiaTS64dn/vDtnqoS4BAuwLuAmjXV3UCSQTWXb396H17pg+F5ksjb2AagsVHwm+7uzpyXeUIEOhYwAsBdQyuHYEuBPY/Nn1N6BP7xj/che7Gv4v56UGgCwEBoAtlPQh0LTBXRv9tf4uX/f3k3/Ug9SPQnoAA0J6tygSSCYTr9C+O3HzftKgujVxTOQIEEgoIAAnxtSbQlkBZVCdHrr35+vVn3xe5pnIECCQUEAAS4mtNoEWBE6PWroqvRq2nGAECyQUEgOQjsAECrQgsj1q1nLszaj3FCBBILiAAJB+BDRBoReCYmFUPTJb8KGY9tQgQSC8gAKSfgR0QaEMg6lMAbxif8Ugbm1STAIF0AgJAOnudCRAgQIBAMgEBIBm9xgQIECBAIJ2AAJDOXmcCBAgQIJBMQABIRq8xAQIECBBIJyAApLPXmQABAgQIJBMQAJLRa0yAAAECBNIJCADp7HUmQIAAAQLJBASAZPQaEyBAgACBdALhN3z6Q4DAkAXe9O5PVSn2/89f/LDvHyng9SQQScAVgEiQyhAgQIAAgSEJCABDmpa9EiBAgACBSAICQCRIZQgQIECAwJAEBIAhTcteCRAgQIBAJAEBIBKkMgQIECBAYEgCAsCQpmWvBAgQIEAgkoAAEAlSGQIECBAgMCQBAWBI07JXAgQIECAQSUAAiASpDAECBAgQGJKAADCkadkrAQIECBCIJCAARIJUhgABAgQIDElAABjStOyVAAECBAhEEhAAIkEqQ4AAAQIEhiQgAAxpWvZKgAABAgQiCQgAkSCVIUCAAAECQxIQAIY0LXslQIAAAQKRBASASJDKECBAgACBIQkIAEOalr0SIECAAIFIAgJAJEhlCBAgQIDAkAQEgCFNy14JECBAgEAkAQEgEqQyBAgQIEBgSAICwJCmZa8ECBAgQCCSgAAQCVIZAgQIECAwJAEBYEjTslcCBAgQIBBJQACIBKkMAQIECBAYkoAAMKRp2SsBAgQIEIgkIABEglSGAAECBAgMSUAAGNK07JUAAQIECEQSEAAiQSpDgAABAgSGJFDW3eyaDVurumutI0CAAAECBNIILKxfVeu23RWANPPRlQABAgQIJBUQAJLya06AAAECBNIICABp3HUlQIAAAQJJBQSApPyaEyBAgACBNAICQBp3XQkQIECAQFIBASApv+YECBAgQCCNgACQxl1XAgQIECCQVEAASMqvOQECBAgQSCMgAKRx15UAAQIECCQVEACS8mtOgAABAgTSCAgAadx1JUCAAAECSQUEgKT8mhMgQIAAgTQCAkAad10JECBAgEBSAQEgKb/mBAgQIEAgjYAAkMZdVwIECBAgkFRAAEjKrzkBAgQIEEgjIACkcdeVAAECBAgkFRAAkvJrToAAAQIE0ggIAGncdSVAgAABAkkF5lN1v+e+nUlan3LSabX62t/Bmfgd3KXue/nVlTr4On4Hd6n7Xn51pbpdV3cusXflCkBsUfUIECBAgMAABASAAQzJFgkQIECAQGwBASC2qHoECBAgQGAAAgLAAIZkiwQIECBAILaAABBbVD0CBAgQIDAAAQFgAEOyRQIECBAgEFtAAIgtqh4BAgQIEBiAgAAwgCHZIgECBAgQiC0gAMQWVY8AAQIECAxAQAAYwJBskQABAgQIxBYQAGKLqkeAAAECBAYgIAAMYEi2SIAAAQIEYgsIALFF1SNAgAABAgMQEAAGMCRbJECAAAECsQUEgNii6hEgQIAAgQEICAADGJItEiBAgACB2AICQGxR9QgQIECAwAAEBIABDMkWCRAgQIBAbAEBILaoegQIECBAYAACAsAAhmSLBAgQIEAgtoAAEFtUPQIECBAgMAABAWAAQ7JFAgQIECAQW0AAiC2qHgECBAgQGICAADCAIdkiAQIECBCILSAAxBZVjwABAgQIDEBAABjAkGyRAAECBAjEFhAAYouqR4AAAQIEBiAgAAxgSLZIgAABAgRiCwgAsUXVI0CAAAECAxAo6+5xzYatVd211hEgQIAAAQJpBBbWr6p12+4KQJr56EqAAAECBJIKCABJ+TUnQIAAAQJpBASANO66EiBAgACBpAICQFJ+zQkQIECAQBoBASCNu64ECBAgQCCpgACQlF9zAgQIECCQRkAASOOuKwECBAgQSCogACTl15wAAQIECKQREADSuOtKgAABAgSSCsyn6n7PfTtTtT5o31NOOu2g73/mO4e6702n7n7mUZK+vfau5bX6D9XbvmuN97CLcv+6HOq/k5esvPWws0ux4O7t59VqO1T3WodrsMgVgAZYlhIgQIAAgVwEBIBcJukcBAgQIECggYAA0ADLUgIECBAgkIuAAJDLJJ2DAAECBAg0EBAAGmBZSoAAAQIEchEQAHKZpHMQIECAAIEGAgJAAyxLCRAgQIBALgICQC6TdA4CBAgQINBAQABogGUpAQIECBDIRUAAyGWSzkGAAAECBBoICAANsCwlQIAAAQK5CAgAuUzSOQgQIECAQAMBAaABlqUECBAgQCAXAQEgl0k6BwECBAgQaCAgADTAspQAAQIECOQiIADkMknnIECAAAECDQQEgAZYlhIgQIAAgVwEBIBcJukcBAgQIECggYAA0ADLUgIECBAgkIuAAJDLJJ2DAAECBAg0EBAAGmBZSoAAAQIEchEQAHKZpHMQIECAAIEGAgJAAyxLCRAgQIBALgICQC6TdA4CBAgQINBAQABogGUpAQIECBDIRUAAyGWSzkGAAAECBBoICAANsCwlQIAAAQK5CAgAuUzSOQgQIECAQAMBAaABlqUECBAgQCAXgbLuQdZs2FrVXWsdAQIECOQr8JKVt/bycHdvP6+X++p6UwvrV9W6bXcFoOvJ6EeAAAECBHogIAD0YAi2QIAAAQIEuhYQALoW148AAQIECPRAQADowRBsgQABAgQIdC0gAHQtrh8BAgQIEOiBgADQgyHYAgECBAgQ6FpAAOhaXD8CBAgQINADAQGgB0OwBQIECBAg0LWAANC1uH4ECBAgQKAHAvOp9nDPfTtTtY7a95STTqtVb9Opu2ut62rR2ruW12pl37WYDruornffvi7q/vu278P+E6i1oK73YrG+vhpfrYMmXjTUf6+x2VwBiC2qHgECBAgQGICAADCAIdkiAQIECBCILSAAxBZVjwABAgQIDEBAABjAkGyRAAECBAjEFhAAYouqR4AAAQIEBiAgAAxgSLZIgAABAgRiCwgAsUXVI0CAAAECAxAQAAYwJFskQIAAAQKxBQSA2KLqESBAgACBAQgIAAMYki0SIECAAIHYAgJAbFH1CBAgQIDAAAQEgAEMyRYJECBAgEBsAQEgtqh6BAgQIEBgAAICwACGZIsECBAgQCC2gAAQW1Q9AgQIECAwAAEBYABDskUCBAgQIBBbQACILaoeAQIECBAYgIAAMIAh2SIBAgQIEIgtIADEFlWPAAECBAgMQEAAGMCQbJEAAQIECMQWEABii6pHgAABAgQGICAADGBItkiAAAECBGILCACxRdUjQIAAAQIDEBAABjAkWyRAgAABArEFBIDYouoRIECAAIEBCAgAAxiSLRIgQIAAgdgCAkBsUfUIECBAgMAABASAAQzJFgkQIECAQGwBASC2qHoECBAgQGAAAmXdPa7ZsLWqu9Y6AgQIECBAII3AwvpVtW7bXQFIMx9dCRAgQIBAUgEBICm/5gQIECBAII2AAJDGXVcCBAgQIJBUQABIyq85AQIECBBIIyAApHHXlQABAgQIJBUQAJLya06AAAECBNIICABp3HUlQIAAAQJJBQSApPyaEyBAgACBNAICQBp3XQkQIECAQFKB+VTd77lvZ6rWveh7ykmn1dpH35zsu9bYoi3iHY2yVqGhetc6XINFdR02vfsLDaq2v3TtF99Tq8lQv6/WOlyDRa4ANMCylAABAgQI5CIgAOQySecgQIAAAQINBASABliWEiBAgACBXAQEgFwm6RwECBAgQKCBgADQAMtSAgQIECCQi4AAkMsknYMAAQIECDQQEAAaYFlKgAABAgRyERAAcpmkcxAgQIAAgQYCAkADLEsJECBAgEAuAgJALpN0DgIECBAg0EBAAGiAZSkBAgQIEMhFQADIZZLOQYAAAQIEGggIAA2wLCVAgAABArkICAC5TNI5CBAgQIBAAwEBoAGWpQQIECBAIBcBASCXSToHAQIECBBoICAANMCylAABAgQI5CIgAOQySecgQIAAAQINBASABliWEiBAgACBXAQEgFwm6RwECBAgQKCBgADQAMtSAgQIECCQi4AAkMsknYMAAQIECDQQEAAaYFlKgAABAgRyERAAcpmkcxAgQIAAgQYCAkADLEsJECBAgEAuAgJALpN0DgIECBAg0EBAAGiAZSkBAgQIEMhFQADIZZLOQYAAAQIEGggIAA2wLCVAgAABArkIlHUPsmbD1qruWusIECBAgACBNAIL61fVum13BSDNfHQlQIAAAQJJBQSApPyaEyBAgACBNAICQBp3XQkQIECAQFIBASApv+YECBAgQCCNgACQxl1XAgQIECCQVEAASMqvOQECBAgQSCMgAKRx15UAAQIECCQVEACS8mtOgAABAgTSCAgAadx1JUCAAAECSQXmU3W/576dqVoftO8pJ5120Pc/851D3femU3c/8yjeJkCgZYG1dy2v1WHTu79Qa11Xi9Z+8T21Wtl3LabDLqrrfdhCDRe4AtAQzHICBAgQIJCDgACQwxSdgQABAgQINBQQABqCWU6AAAECBHIQEABymKIzECBAgACBhgICQEMwywkQIECAQA4CAkAOU3QGAgQIECDQUEAAaAhmOQECBAgQyEFAAMhhis5AgAABAgQaCggADcEsJ0CAAAECOQgIADlM0RkIECBAgEBDAQGgIZjlBAgQIEAgBwEBIIcpOgMBAgQIEGgoIAA0BLOcAAECBAjkICAA5DBFZyBAgAABAg0FBICGYJYTIECAAIEcBASAHKboDAQIECBAoKGAANAQzHICBAgQIJCDgACQwxSdgQABAgQINBQQABqCWU6AAAECBHIQEABymKIzECBAgACBhgICQEMwywkQIECAQA4CAkAOU3QGAgQIECDQUEAAaAhmOQECBAgQyEFAAMhhis5AgAABAgQaCggADcEsJ0CAAAECOQgIADlM0RkIECBAgEBDAQGgIZjlBAgQIEAgBwEBIIcpOgMBAgQIEGgoIAA0BLOcAAECBAjkIFDWPcSaDVurumutI0CAAAECBNIILKxfVeu23RWANPPRlQABAgQIJBUQAJLya06AAAECBNIICABp3HUlQIAAAQJJBQSApPyaEyBAgACBNAICQBp3XQkQIECAQFIBASApv+YECBAgQCCNgACQxl1XAgQIECCQVEAASMqvOQECBAgQSCMgAKRx15UAAQIECCQVEACS8mtOgAABAgTSCAgAadx1JUCAAAECSQUEgKT8mhMgQIAAgTQCAkAad10JECBAgEBSAQEgKb/mBAgQIEAgjYAAkMZdVwIECBAgkFRAAEjKrzkBAgQIEEgjIACkcdeVAAECBAgkFRAAkvJrToAAAQIE0ggIAGncdSVAgAABAgQIECBAgAABAgQIECBAgAABAgQIECBAgAABAgQIECBAgAABAgQIECBAgAABAgQIECBAgAABAgQIECBAgAABAgQIECBAgAABAgQIECBAgAABAgQIECBAgAABAgQIECBAgAABAgQIECBAgAABAgQIECBAgAABAgQIECBAgAABAgQIECBAgAABAgQIECBAgAABAgQIECBAgAABAgQIECBAgAABAgQIECBAgAABAgQIECBAgAABAgQIECBAgAABAgQIECBAgAABAgQIECBAgAABAgQIECBAgAABAgQIECBAgAABAgQIECBAgAABAgQIECBAgAABAgQIECBAgAABAgQIECBAgAABAgQIECBAgAABAgQIECBAgAABAgQIECBAgAABAgQIECBAgAABAgQIECBAgAABAgQIECBAgAABAgQIECBAgAABAgQIECBAgAABAgQIECBAgAABAgQIECBAgAABAgQIECBAgAABAgQIECBAgAABAgQIECBAgAABAgQIECBAgAABAgQIECBAgAABAgQIECBAgAABAgQIECBAgAABAgQIECBAgAABAgQIECBAgAABAgQIECBAgAABAgQIECBAoJcC/w/vRqLXvtHyEAAAAABJRU5ErkJggg==;" vertex="1" parent="1">
          <mxGeometry x="694" y="277" width="60" height="60" as="geometry" />
        </mxCell>
        <mxCell id="R886sbOOun7oYMftV1Vu-21" value="키보드" style="text;html=1;strokeColor=none;fillColor=none;align=center;verticalAlign=middle;whiteSpace=wrap;rounded=0;" vertex="1" parent="1">
          <mxGeometry x="693" y="264" width="60" height="30" as="geometry" />
        </mxCell>
        <mxCell id="R886sbOOun7oYMftV1Vu-24" value="" style="shape=image;verticalLabelPosition=bottom;labelBackgroundColor=default;verticalAlign=top;aspect=fixed;imageAspect=0;image=data:image/png,iVBORw0KGgoAAAANSUhEUgAAAgAAAAIACAYAAAD0eNT6AAAMbWlDQ1BJQ0MgUHJvZmlsZQAASImVVwdYU8kWnluSkJAQIICAlNCbIFIDSAmhBZBeBBshCSSUGBOCir0sKrh2EQEbuiqi2FZA7NiVRbH3xYKKsi7qYkPlTUhA133le+f75t4/Z878p9yZ3HsAoH/gSaV5qDYA+ZICWUJ4MHN0WjqT9BQgAAMUQAB0Hl8uZcfFRQMoA/e/y7sb0BrKVWcl1z/n/6voCoRyPgDIWIgzBXJ+PsTHAcCr+FJZAQBEpd5qcoFUiWdDrCeDAUK8SomzVXi7Emeq8OF+m6QEDsSXAdCg8niybAC07kE9s5CfDXm0PkPsKhGIJQDQh0EcwBfxBBArYx+Wnz9Ricshtof2UohhPICV+R1n9t/4Mwf5ebzsQazKq180QsRyaR5v6v9Zmv8t+XmKAR+2cFBFsogEZf6whrdyJ0YpMRXiLklmTKyy1hB/EAtUdQcApYgUEckqe9SEL+fA+gEDiF0FvJAoiE0gDpPkxUSr9ZlZ4jAuxHC3oFPEBdwkiA0hXiiUhyaqbTbKJiaofaH1WTIOW60/x5P1+1X6eqDITWar+d+IhFw1P6ZVJEpKhZgCsXWhOCUGYi2IXeS5iVFqm5FFIk7MgI1MkaCM3xriBKEkPFjFjxVmycIS1PYl+fKBfLGNIjE3Ro33FYiSIlT1wU7xef3xw1ywy0IJO3mARygfHT2Qi0AYEqrKHXsulCQnqnk+SAuCE1RrcYo0L05tj1sK88KVekuIPeSFieq1eEoB3JwqfjxLWhCXpIoTL8rhRcap4sGXgWjAASGACRRwZIKJIAeIW7sauuAv1UwY4AEZyAZC4KzWDKxI7Z+RwGsiKAJ/QCQE8sF1wf2zQlAI9V8GtaqrM8jqny3sX5ELnkKcD6JAHvyt6F8lGfSWAp5Ajfgf3nlw8GG8eXAo5/+9fkD7TcOGmmi1RjHgkUkfsCSGEkOIEcQwogNujAfgfng0vAbB4YazcJ+BPL7ZE54S2giPCNcJ7YTbE8RzZT9EOQq0Q/4wdS0yv68Fbgs5PfFg3B+yQ2bcADcGzrgH9MPGA6FnT6jlqONWVoX5A/ffMvjuaajtyK5klDyEHES2/3GllqOW5yCLstbf10cVa+ZgvTmDMz/653xXfQG8R/1oiS3E9mNnsRPYeeww1gCY2DGsEWvBjijx4O560r+7Brwl9MeTC3nE//DHU/tUVlLuWuva6fpZNVcgnFKgPHicidKpMnG2qIDJhm8HIZMr4bsMY7q5urkBoHzXqP6+3sb3v0MQg5Zvunm/A+B/rK+v79A3XeQxAPZ6w+N/8JvOngWAjiYA5w7yFbJClQ5XXgjwX4IOT5oRMANWwB7m4wa8gB8IAqEgEsSCJJAGxsMqi+A+l4HJYDqYA4pBKVgGVoMKsAFsBtvBLrAPNIDD4AQ4Ay6Cy+A6uAt3Twd4CbrBO9CLIAgJoSEMxAgxR2wQJ8QNYSEBSCgSjSQgaUgGko1IEAUyHZmHlCIrkApkE1KD7EUOIieQ80gbcht5iHQib5BPKIZSUT3UFLVFh6MslI1GoUnoODQbnYQWofPRJWg5Wo3uROvRE+hF9Drajr5EezCAaWIGmAXmjLEwDhaLpWNZmAybiZVgZVg1Voc1wed8FWvHurCPOBFn4EzcGe7gCDwZ5+OT8Jn4YrwC347X46fwq/hDvBv/SqARTAhOBF8ClzCakE2YTCgmlBG2Eg4QTsOz1EF4RyQSDYh2RG94FtOIOcRpxMXEdcTdxOPENuJjYg+JRDIiOZH8SbEkHqmAVExaS9pJOka6QuogfdDQ1DDXcNMI00jXkGjM1SjT2KFxVOOKxjONXrI22YbsS44lC8hTyUvJW8hN5EvkDnIvRYdiR/GnJFFyKHMo5ZQ6ymnKPcpbTU1NS00fzXhNseZszXLNPZrnNB9qfqTqUh2pHOpYqoK6hLqNepx6m/qWRqPZ0oJo6bQC2hJaDe0k7QHtgxZDy0WLqyXQmqVVqVWvdUXrFZ1Mt6Gz6ePpRfQy+n76JXqXNlnbVpujzdOeqV2pfVD7pnaPDkNnhE6sTr7OYp0dOud1nuuSdG11Q3UFuvN1N+ue1H3MwBhWDA6Dz5jH2MI4zejQI+rZ6XH1cvRK9Xbptep16+vqe+in6E/Rr9Q/ot9ugBnYGnAN8gyWGuwzuGHwaYjpEPYQ4ZBFQ+qGXBny3nCoYZCh0LDEcLfhdcNPRkyjUKNco+VGDUb3jXFjR+N448nG641PG3cN1RvqN5Q/tGTovqF3TFATR5MEk2kmm01aTHpMzUzDTaWma01PmnaZGZgFmeWYrTI7atZpzjAPMBebrzI/Zv6Cqc9kM/OY5cxTzG4LE4sIC4XFJotWi15LO8tky7mWuy3vW1GsWFZZVqusmq26rc2tR1lPt661vmNDtmHZiGzW2Jy1eW9rZ5tqu8C2wfa5naEd167Irtbunj3NPtB+kn21/TUHogPLIddhncNlR9TR01HkWOl4yQl18nISO61zahtGGOYzTDKsethNZ6oz27nQudb5oYuBS7TLXJcGl1fDrYenD18+/Ozwr66ernmuW1zvjtAdETli7oimEW/cHN34bpVu19xp7mHus9wb3V97OHkIPdZ73PJkeI7yXODZ7PnFy9tL5lXn1elt7Z3hXeV9k6XHimMtZp3zIfgE+8zyOezz0dfLt8B3n++ffs5+uX47/J6PtBspHLll5GN/S3+e/yb/9gBmQEbAxoD2QItAXmB14KMgqyBB0NagZ2wHdg57J/tVsGuwLPhA8HuOL2cG53gIFhIeUhLSGqobmhxaEfogzDIsO6w2rDvcM3xa+PEIQkRUxPKIm1xTLp9bw+2O9I6cEXkqihqVGFUR9SjaMVoW3TQKHRU5auWoezE2MZKYhlgQy41dGXs/zi5uUtyheGJ8XHxl/NOEEQnTE84mMhInJO5IfJcUnLQ06W6yfbIiuTmFnjI2pSblfWpI6orU9tHDR88YfTHNOE2c1phOSk9J35reMyZ0zOoxHWM9xxaPvTHObtyUcefHG4/PG39kAn0Cb8L+DEJGasaOjM+8WF41ryeTm1mV2c3n8NfwXwqCBKsEnUJ/4Qrhsyz/rBVZz7P9s1dmd4oCRWWiLjFHXCF+nRORsyHnfW5s7rbcvrzUvN35GvkZ+QclupJcyamJZhOnTGyTOkmLpe2TfCetntQti5JtlSPycfLGAj34Ud+isFf8pHhYGFBYWfhhcsrk/VN0pkimtEx1nLpo6rOisKJfpuHT+NOap1tMnzP94Qz2jE0zkZmZM5tnWc2aP6tjdvjs7XMoc3Ln/DbXde6KuX/NS53XNN90/uz5j38K/6m2WKtYVnxzgd+CDQvxheKFrYvcF61d9LVEUHKh1LW0rPTzYv7iCz+P+Ln8574lWUtal3otXb+MuEyy7MbywOXbV+isKFrxeOWolfWrmKtKVv21esLq82UeZRvWUNYo1rSXR5c3rrVeu2zt5wpRxfXK4MrdVSZVi6rerxOsu7I+aH3dBtMNpRs+bRRvvLUpfFN9tW112Wbi5sLNT7ekbDn7C+uXmq3GW0u3ftkm2da+PWH7qRrvmpodJjuW1qK1itrOnWN3Xt4Vsquxzrlu026D3aV7wB7Fnhd7M/be2Be1r3k/a3/drza/Vh1gHCipR+qn1nc3iBraG9Ma2w5GHmxu8ms6cMjl0LbDFocrj+gfWXqUcnT+0b5jRcd6jkuPd53IPvG4eULz3ZOjT147FX+q9XTU6XNnws6cPMs+e+yc/7nD533PH7zAutBw0etifYtny4HfPH870OrVWn/J+1LjZZ/LTW0j245eCbxy4mrI1TPXuNcuXo+53nYj+catm2Nvtt8S3Hp+O+/26zuFd3rvzr5HuFdyX/t+2QOTB9W/O/y+u92r/cjDkIctjxIf3X3Mf/zyifzJ5475T2lPy56ZP6t57vb8cGdY5+UXY150vJS+7O0q/kPnj6pX9q9+/TPoz5bu0d0dr2Wv+94sfmv0dttfHn8198T1PHiX/673fckHow/bP7I+nv2U+ulZ7+TPpM/lXxy+NH2N+nqvL7+vT8qT8fo/BTA40KwsAN5sA4CWBgAD9m2UMapesF8QVf/aj8B/wqp+sV+8AKiD3+/xXfDr5iYAe7bA9gvy02GvGkcDIMkHoO7ug0Mt8ix3NxUXFfYphAd9fW9hz0ZaCcCXZX19vdV9fV82w2Bh73hcoupBlUKEPcNG7pfM/Ezwb0TVn36X4493oIzAA/x4/xfwk5CLtzxSzQAAADhlWElmTU0AKgAAAAgAAYdpAAQAAAABAAAAGgAAAAAAAqACAAQAAAABAAACAKADAAQAAAABAAACAAAAAAAoMJe/AABAAElEQVR4Ae3dCZwlVX3o8VN36X253bd7NhhgGEYRMIiKC0GjomBUVPxExQUT3IjGJEYTUd/LR4kLMYkao4+4hgcEReJTwSXiAkowuKOBAWZ6enoWGJaeme6Z6e1uVe9/WoFhpnuqbt1aTp37q8+nP9N9q+os3/+dW/9bdeqUo1gQQCC0wNjY2EChUHi2FLDO87yy/Awp1y25Sg06SvV7nurzlNfrum6P/N0l6zvltaL8W3Q9Ny//5uQndP1Bd5Q2qnw+r3KOoxwnp5yc8/DvOfldv7a4bvF1Wa+3yz36taB1BdxOd3pOTA6IzwGp8IDy1Iy8dkC/Jn7yr7ymXP33jF6vX1tc35Dfc+7k8PDwFmlnJWB9bIYAAocIyP8tFgQQ8BPYtm3baY1G41nK8053Xe/Ehts4Wv4uyU/Rb9+k1ufkgF2UA32hUJSfgioW9e/yky8sHtCTakeC9UhOoLbJh9gmSSI2eY6zyWk4m+qqvml0dHRXgu2gKgQyKUACkMmw0eg4BLZs2bIi7+TP8hzv6W6j8fiG665zG+5ovVHvlm/pRvxf0d/MC/JN/tEH+eLigV8nACwPC8hZA7XZ8XRy4Ehy4G0Su02VSmXzqlWrZh/eil8QaGMBIz7U2tifrqcoMDEx8QQ5Nf9mt+6eVa1X15n0bf4hlpycmu/s7JCfLtXV2Snf6o054fBQE7P2r770MKGU80NJCm6UmN8oZwvuy1onaC8CUQiQAEShSBmZENixY8f6er1+kXzoP79Wqz1Gfu80reH6G35nxyMH/A75nSVeAfkQvEvO79yoXOfGXDH3w8HBwb3x1kjpCJghQAJgRhxoRQwCW7duXalc9eaG13hxvVY/uVavdcdQTUtF6gN+h3yrf+gbvj7g69dYUhNwZTDibyQIN8oZgh9IkvhfK1as0IMTWRCwToBPGutC2r4d2rVrV8/8/Lz+hv8y+TlVvuX3m6hx8AG/U07rc8A3MUoPt6kuv/1MKU/OEORuLI2UbpF41R5eyy8IZFiABCDDwaPpvxWYGB+/sNZovL1arZ4i1/SNHAmnR+P3dPeo3p6exZH5xC6zArtlcOE1Ode9anBkRBIDFgSyK0ACkN3YtXXL5ba8M+T07CVy0H+m/GvkhXI9Kr+nu1v19PQuXtdv64BZ2HkZTbhJLhdc5eSdfx8aGtpuYRfpkuUCJACWB9im7u3cufOo6kL1A7VG7Tw58JdM7Js+nd8lI/Z75Jt+d1cXp/dNDFL0bZJpCNTNyvGulIkJvlIul/dHXwUlIhC9AAlA9KaUGKGA3KrXJQP5Lq7UKq+Xa/rHJDFrXpjm68F7+vS+Ps3P/fhhBK3ZZ14+VK9zHXWVnBX4riSEegwBCwJGCpAAGBkWGjUxPvEqmYDnbyrVyqmmXtfXU+suHvTlFL+egY8FgUcLOA/IVMZfkozwSkkGbnv0Ov5CIH0BEoD0Y0ALDhKQA//7FqoL7zR1BL9uqp6MZ6B/YPH6/kFN51cElhWQD9pb5azAB+X5Bd9ediNWIJCwAAlAwuBUd7iAfiCOjOT/SKVa+zMT79V/qMX6NL8+8Otr+ywIhBLw1G2O431ocHj4q3J5QM9KyIJAagIkAKnRU/HGjRs7urq6PiHzs19o4qx8D0VIT8GrD/z6nn0WBKIQkA/eu+SMwIfl0sCXJBFoRFEmZSDQrAAJQLNibN+ywIMbH+zb37n/Mjnwny8T9hg7ub3+pq8P/EzH23LIKWB5ga2O8v5ezghcIYlAdfnNWINA9AIkANGbUuIyAnIb33C1UvncQqXyEjnw55fZLPWX9b37+sDPg3dSD0U7NeAe5Tn/ODM/87m1a9fOt1PH6Wt6AiQA6dm3Tc0yac9qmYv/CwuVhXNMHdGvg6FH9OsDv561jwWBdAS8B+VMwMdkZsvL5CmFB9JpA7W2iwAJQLtEOoV+jo2NDUi1X5FT/c+VA7+x77XFA/+AHPjzHPhTeJtQ5dICU56n/mmoPPRRSQgqS2/Cqwi0JmDsh3Jr3WLvtAXkdr6L5yvzf2fqNL3aR5/iHyqVZJpeBvel/X6h/uUEnM2Oct9WKpe/t9wWvI5AWAESgLBy7LekwPbt25+0sLDwNfnWv3bJDQx4Ub5RqUH5xt/fZ+TDAg0QogmmCcj9gte6nvuOkZGRe01rG+3JrgAJQHZjZ1TL9ZS9MrDvy/I43nPlvn5j31d6gF9psKT0LH4sCGRMQMYEeO8vDQ//iySxTDGcseCZ2FxjP6hNxKJNSwtsGx9/61yl8lE53W/sDDl6YJ8+3a8f1MOCQMYFbpcU+60yq+AtGe8HzU9ZgAQg5QBkuXr51n9irVr7hozuP8HUfujT/QP9/Yun+/XvLAhYIiBXBbwrCh0d7+rv75+0pE90I2EBPhETBrehOu8mr7B17fiV8wsL55s8ul9P5KNP93Nbnw3vOvqwjMCUnA14r8wo+FlJcOVpxCwIBBcgAQhuxZYisHXr1tfKAL9Py8N6ek0F0df39en+7q5uU5tIuxCIWMD5ueM6bymNln4ZccEUZ7EACYDFwY2ya3refpkL//tzc3PPiLLcqMvS9/QPlYYUp/ujlqW8DAjIGQDvQzJI8BJ5//N8gQwELO0mkgCkHYEM1C8z+Z0mt/bdWK1WS6Y2Vx/w9bf+3h5jT0yYSke7bBPw1I/qXuPVMpPgLtu6Rn+iFchFWxyl2SYgp/zfOzMz8wuTD/7FQlGtXLGCg79tbz76E07AUX9QcPK/3rdnzznhCmCvdhHgDEC7RLrJfur7+uW2vpvkvv6nNblropvrb/z6mz+n/BNlp7JsCHiOpz4yWB76W/n/wbwB2YhZoq0kAUiUOxuV7RgfP322Wv2+DPTTc/kbufz2lP/Q4gN8jGwgjULAHIEfu8o7v1wu32NOk2iJCQJcAjAhCga1YXx8/JL98/M/Nfngr+fwX7liJQd/g943NMVogd/PKefXe/fufZHRraRxiQtwBiBxcjMr3LVrV8/s7OyP5JT/k81s4W9bxSl/k6ND2wwXkMmDnI+VhkvvkTNoNcPbSvMSECABSADZ9CpklP8ZcuC/Qb7195naVn3Kf1hu7+uR2/xYEEAgvIBkAT91cs4rZfKg7eFLYU8bBLgEYEMUW+jDxPj4h2WU/y0mH/z1Kf9Vcsqfg38LgWZXBH4nIN/6nqpc77ap3VMvAaW9BTgD0Mbx37Jly9dlYh+jPwS6OjvVSHmEUf5t/D6l67EJ6OcJvHOoXP54bDVQsNECJABGhye+xo2Njd1q+i1+Pd09aniIWf3iexdQMgKSAsitgsMjw+/Gov0ESADaLOZ6Sl85pX6HzOy3weSu9/X2Ld7fb3IbaRsC9gh4l8sUwm+SsTZMIWxPUH17QgLgS2TPBjt37hyem53bWKlWVpncq8GBAXmEr7FTEJhMR9sQCC/gqOtnZmfPX7t27Xz4QtgzSwIkAFmKVgttlSl9j61WKv9TNXhyH909/SCfvl7m828h1OyKQCsCt6icc67cITDdSiHsmw0B7gLIRpxaauXvHuZzt8kHf32b38hwmYN/S5FmZwRaFjhT7hC4eXJyck3LJVGA8QKcATA+RK01UL75ny2D/b7VaDQKrZUU3945Jycj/ctKHjccXyWUjAACzQhsy7uNcwZGRzc3sxPbZkuAMwDZildTrZWD/wVym99/mnzwz+fyasXoKAf/piLLxgjELnBcw8nfMj05bfTMoLErWF4BCYClAZ4Yn7hYpva9wnVdY2NcKBQWD/56oh8WBBAwTMBRo17OvWl6z57nGdYymhORAJcAIoI0qRh5oM/H5Zv/2z25wdfURR/0R0dGlD4DwIIAAkYLVB3lXVAql681upU0rmkBY78dNt0TdlgUkG/+75Nv/kYf/PU3/9GRUQ7+vGcRyIZAh6ecq+Vpgi/IRnNpZVABzgAElcrAdnLN/01y8P+syd/88/nfXvMv5I0dk5iBSNNEBFIRmHOV99xyuXxrKrVTaeQCJACRk6ZT4LbxbS+cmZ/5hlzzNzamuVxOrZBv/lzzT+c9Qq0IRCCwt+G5Z46MjNwVQVkUkbKAsQeLlF0yVf2O8fHTDyws3Cqj/Y29oK7v8x+Vh/pwq1+m3lo0FoGlBHbKmYAz5EzAPUut5LXsCDAGIDuxWrKlO3bsWD9TqfyXyQd/3fDy8DAH/yUjyIsIZE5gbU45N+zbt284cy2nwY8SIAF4FEe2/ti1adeIXPO/rV6vGz2DzrBM79vd1Z0tXFqLAAJHEjjJqze+uWvXrp4jbcQ6swVIAMyOz7Ktm5iY6Drg7d9Yq9X6l93IgBWDA4Oql7n9DYgETUAgWgG5yfjp3Z1d18qgY0b0RkubWGkkAIlRR1tRrVq7o1Ktroi21GhL6+/rk6f6GZ2fRNthSkOg/QReOL137+fbr9t29JhBgBmM49jY2E9kfv+nmtz0nu6exev+JrexXdsm40WUPBhK1arVRYJiR4fqkImZ9C2aLAiEEZA5x/5heGT44jD7sk96AiQA6dmHqnnLli1fl1n+XhJq54R26ursWny4jx75z5KugJ4TYmZmRk1NT6npfftUtVJVDbexZKP0rIwdnR2qNDj428cyyxkcYrgkFS8uKeC9Y6hc/viSq3jRSAE+oY0My9KNkol+/kU+zP986bVmvKq/Sa4YXcGBI+VwyBkidd/998mBf1rJINFQrdEzNg6VSmr1qtWqu5tBnKEQ22snz3PUq4eHh69pr25nt7ckABmJnZ7o58DcgW+aPMufnuhnpRz89YGDJR2BqpzWv2fXvWr37t0qqveKPgsgE7+oo9ccpTrkcgELAkcQmJWJgk5noqAjCBm0igTAoGAs1xR9u990Y3qnfJPrWm4bE14fGS7zTTGlQOiD/b27di1+65fZIGNphU7w9NmAo9as4QxPLMLWFHrHfGXhqWvWrJmzpkeWdoS7ADIQ2Bln5r9NP/j39fZx8E/pvaQH9W0a2ywJwL0qroO/7pouW9eh69J1siCwjMAp3Z2dn1pmHS8bJEACYFAwlmrK1i1bP7OwsLBhqXWmvKav++uBYyzJCyxUFtTGOzcqmZUtscp1XbpOXTcLAksLOBdO7Z563dLreNUUAS4BmBKJJdqRiev+jlz3X8F1/yXCF/tLc/Nz6q677w49yK/VBuqxHo878USlb/lkQWAJAcYDLIFi0kucATApGge1RV/3n6vMfSWqgVwHFR3pr0NDQwz6i1Q0WGE1Gdm/efNYagd/3Up9d4Fug24LCwJLCPTmndy1TBe8hIwhL5EAGBKIQ5uRlev+PdwedmjoYv9bJ4Vjch2+Uq3EXpdfBboNui2mJ6p+/WB9bAKMB4iNtvWCSQBaN4y8hCxc9y9y3T/yuActcGL7NnVAJvcxZdFt0W1iQWBpAcYDLO2S/qskAOnH4FEt0Nf9Z+dn3/yoFw37Y/G+cLnlj1nikg+MntVvcnIy+Yp9atRt0m1jQWBJAce7TOameNyS63gxNQESgNToD684K9f9h7nuf3jwEnplx84dCdXUfDUmt6353rBHxAKMB4gYNIriSACiUIyojGxc9+9l1HdE8W62mKmpKaNO/R/afn0pQLeRBYFlBBgPsAxMWi+TAKQlf0i94+PjHzf9fn9921dpsHRIy/kzKYGd996TVFWh68lCG0N3jh0jEHAunN6z5xURFEQREQiQAESA2GoR27ZtWy0Hf6Mf8qP7OFQa4rp/q8EOub9+uI/+MX3JSjtNd7S5fZ5yPi5jRvpt7mNW+kYCYECkatXaN2VqVaMfxq4ne+nq7DRAqz2bsDdDp9az1Nb2fDel3us1hVzhktRbQQMUCUDKbwIZ9f+y+YX5J6bcjCNWr0f7M9XvEYliXzk1nZ1r61lqa+yBo4JlBLw/37t37+OXWcnLCQmQACQEvVQ1MnlKbqE6f/lS60x6bXBgUOXzRp+gMIkr8rbUajU1OzsbeblxFajbqtvMgsARBAqOpy6Tz0Cmoz8CUtyrSADiFj5C+TLw7zPVWm3gCJukvkpP+NPf15d6O9q5AVm49n9ofLLY5kP7wN+xC5w5vWeaBwbFzrx8BSQAy9vEumbr1q3HysC/18daSQSF64F/LOkKVGvVdBsQovYstjlEN9mlVQHH/Qe5dZRbi1p1DLk/CUBIuFZ3a9Tr35Tnqxvt39vTqzo7OlrtKvu3KFCtZu90ehbb3GKY2D2UgLPCaXgfCrUrO7UsYPQBqOXeGVrAtvHxV88vLJxiaPMWm5XL5Rj4Z0iAahk8A5DFNhsS7rZrhowC+NPpyWmjB0LbGhQSgIQjqwf+zVern0242qar0wP/dBLAkr5ArZa9x+1msc3pR7ptW5Dzct6/MiAw+fjzCZ+wuVz7v0JGSPcmXG1T1XXIaf++XqOb2FR/sr+xl8EuZLHNGWS2psneU/ZNTb3Jmu5kpCMkAAkGauf4+AYZHf2aBKsMVRUD/0KxsRMCCLQg4Hnq0v3795dbKIJdmxQgAWgSrJXNF1xXD/wz+r7Xvt4+1SG3/rEggAACCQsMN2qNjyRcZ1tXRwKQUPgnJiaeL9/+H5NQdaGq0TP+DQ4YPS1BqH6xEwIIZEXAu3D/5ORjs9LarLeTBCChCMp8/59KqKrQ1ejr/gz8C83Hjggg0LpArpHLvaf1YighiAAJQBClFrfZPj5+5kJlYX2LxcS6u/7239/HA7piRaZwBBAIIOC8RiYHOi7AhmzSogAJQIuAQXavNBqfCbJdmtv09vQw33+aAaBuBBB4SKAgkwNd/NAf/BufAAlAfLaLJW/btu20SqVyUszVtFx8fz/f/ltGpAAEEIhEQG4ivXBycnJNJIVRyLICJADL0kSzQq79f14muIimsJhK0d/+C/lCTKVTLAIIINCkgKM6C7nCXze5F5s3KUAC0CRYM5vLyP8T5dq/8VNcDvQz8r+ZuLItAggkIeBddODAgdEkamrXOkgAYox8vV7/gunf/nu6u1WhwLf/GN8GFI0AAuEEehq12tvD7cpeQQRIAIIohdhGP+63srDw9BC7JroL3/4T5aYyBBBoQkCunr6NxwU3AdbkpiQATYIF3dxtNP7N9eQ5VwYv3V1dqsisfwZHiKYh0PYCA8pVf972CjEBkADEALtly5YVC5XKs2MoOtIi+fYfKSeFIYBALALeX95///08nSwGWxKAGFDluv8XTJ/zv6uzU+mn/rEggAAChguUu4rFtxjexkw2jwQg4rDJyP+S3Pf/goiLjbw4vv1HTkqBCCAQm4DzTvls7Yqt+DYtmAQg4sB7De+f5du/0a4dxQ7VKWcAWBBAAIEsCMhMKquGBgaMf5R6FiwPbqPRB6qDG5qV36u1yktNb2uPTPzDggACCGRJwFPOH2epvVloKwlAhFGSW/+eWa3VBiMsMpai9Mx/LAgggEDGBM6cnp5el7E2G91cEoAIwyO3/r0/wuJiKUrf+scjf2OhpVAEEIhXwJFLrBfEW0V7lU4CEGG8q9XqmREWF0tRPT3cTRMLLIUigED8Ap73uvgraZ8aSAAiirWMUL2o3mgUIyoulmL0N399BoAFAQQQyKSAo9bv2bPnjEy23cBGkwBEFJRarfaXERUVWzHdMu+/4xg9OWFsfadgBBCwQ8BhMGBkgSQBiIBybGxsQE7/nxhBUbEWweC/WHkpHAEEEhCQrzCvkMnWuI85AmsSgAgQC7nc+02f+a+QL6jODv7PRBBuikAAgXQFSvv27n1xuk2wo3YSgAjiWK3XXx1BMbEWwb3/sfJSOAIIJCggz1ljMGAE3iQALSJu3779JJn6d2WLxcS+O6f/YyemAgQQSErAUc8/cP+BFUlVZ2s9JAAtRlYG/32wxSJi310/9KdQKMReDxUggAACCQkU6sX6qxKqy9pqSABaDG2tWjunxSJi351v/7ETUwECCCQt4DAnQKvkJAAtCMq9/y+p1WtGz6urb/vr6Ta6iS1EgF0RQKBtBTz1RJkT4OS27X8EHScBaAGx0Wi8s4XdE9lVP/WPqX8ToaYSBBBIWEAOYK9MuEqrqiMBaCGccv3/CS3snsiuXTz2NxFnKkEAgTQEnLPSqNWWOkkAQkZSnvy3UhKA/pC7J7ZbVydT/yaGTUUIIJC0wFMefPDBvqQrtaU+EoCwkXTVm8LumtR++tR/sWj04wmSoqAeBBCwU6CQz+eNfwibqfQkACEj03Ab54bcNbHd9PV/FgQQQMBmAXk2wHNs7l+cfSMBCKlbb9SNH33K9f+QwWU3BBDIjICjvGdnprGGNZQEIERA5Pr/sXL9vzfEronuwhmARLmpDAEEUhFwnjg1NVVKpeqMV0oCECaArmv89f98Lq+KBa7/hwkv+yCAQKYEcqqunpmpFhvSWBKAEIFouO4LQ+yW6C58+0+Um8oQQCBNgZz7nDSrz2rdJAAhIler108MsVuiu5AAJMpNZQggkKqAwziAEP4kAE2ijY+PP6Zerxt/cz0DAJsMLJsjgECWBR6/f//+kSx3II22kwA0qe543pub3CXxzeW+WJ7+l7g6FSKAQIoCjlurPSvF+jNZNQlAk2Gru+7zm9wl8c359p84ORUigEDaAh7zATQbAhKAJsXk9P+GJndJfHOu/ydOToUIIJC2gKMYB9BkDEgAmgCTx/8+QRKAjiZ2SWVT5v9PhZ1KEUAgRQFPqRMnJydXp9iEzFVNAtBEyFzXPa+JzVPZVM//r8cAsCCAAALtJiCffU9qtz630l8SgOb0Tmtu8+S3LhYKyVdKjQgggIABAjJI+7EGNCMzTSABaCJUjUbD+Ov/BWb/ayKibIoAAjYJeMohAWgioCQATWC5jYbx15eKRc4ANBFSNkUAAYsEHKVIAJqIJwlAE1j1RqO/ic1T2bTAJYBU3KkUAQRMEOAMQDNRIAEIqKWfACiDAI334gFAAQOaoc2yOKgzi23O0FuCpi4r4K3kyYDL4hy2wvgD2mEtTumFnOedlVLVTVXLB29TXJnYuFg0/s7Twxyz2ObDOsELmRTINRpcBggYORKAgFCu5zw14KapbaZP/zuOXAVjsUqgoyN7j3XOYputetO0cWdclScBCBh/EoCAUA2vcUrATVPbjFsAU6OPteKODJ4ByGKbYw0ihScm4OS4FTAoNglAQCm5/n9swE1T24xbAFOjj7Xijo7sXQLIYptjDSKFJybgeQwEDIpNAhBQSuYAKAfcNLXNOAOQGn2sFff09KhiMTuXAXRbdZtZEEhHgDMAQd1JAAJIeTd5BUkAugJsmuomBeYASNU/zsqHSkNxFh9p2Vlqa6QdpzAjBGQU1Ame53FsCxANkAIgTRw7cYa8oQJsme4mXAJI1z/O2oeGSnEWH2nZWWprpB2nMCME5JO6a9++fcZfsjUBiwQgSBRc9cwgm6W5zeJDgORBQCx2CgwMDGbiIU/6NlTdVhYE0hSQM7bcCRAgABwxAiC5yn1igM1S3YQZAFPlj73ynNzeuWrlytjrabUC3UbdVhYE0hTIqRwJQIAAkAAEQJLT/2sDbJbqJgUeAZyqfxKVr161Wpk80FO3TbeRBQEDBIz/zDbASJEABIiCJAC9ATZLdRPHIZSpBiCByvXp9TVrjkqgpnBV6LYxE2U4O/aKVsBTnvHPbYm2x+FK46gRwE0SAOPvacrlOO0aIJSZ32TlihWqq8u8G1J0m3TbWBAwQUAObCQAAQJBAhAASTYx7xP3kHZzBuAQEEv/1FM9P+aEDUZ909bf+nWbmIba0jddBrslN22RAASIGwlAACQ5A9AZYLNUN+EMQKr8iVbe3d2tTlh/ghEHXH3Q123RbWJBwCABEoAAwSABCIAkCYDxc7FyBiBAIC3apDQ4qI5Zm/44J90G3RYWBIwSyKk+o9pjaGNIAAIERhKAQoDNUt2EW69S5U+l8lUrV0kScEwqdetKdd26DSwIGCfgOZwBCBAU4w9sAfoQ+yaea34C4DAJUOzvAxMrWL1qlZx+71JbxseVTH6SSBP1Nf8T1q+Xb/7ZmZ0wERgqMUiAuwCCBIMzAAGUXM81fog9ZwACBNLSTfSB+OTHnZTI3QF6tL+ui4O/pW8me7rFGYAAsSQB8EGS0/85+TE+AXC4DdAnknav1oPwfu+Ux6tjjzlGxTErpC5Tl63rYMCf3e8lS3rXm4XP7bStuQTgE4GJiYlRn02MWJ1jIiAj4pBmI/SIfH1NfnRkVO26b5e6/4EHlOu6LTVJP2NCT++7ZvUao249bKlT7NwOAs7k5KSewG2mHTobto8kAD5y8qGaiblNuQfbJ5BttFpfo1979Fp1lMzMt2//PjU1Na2mp6dUrV4PpKCn9C3J44f1U/0G5cE+OglgQSBrAvKZqC8DkAAcIXAkAEfA0avkNFImpjfjQ9onkG24Wr8nhvSBXH6UWqdmZ2dVpVpR1WpN1WrVxX81S0dHURWLHYv/dnZ0qt5e42e+bsNo0uVmBWTyFp0A3Nfsfu20PQmAf7QzkQBwBsA/kO2+hT6wc3Bv93dB+/TfVUUGAvqEm3N7PkByYB3x2ST11Xz7Tz0ENAABBAwT4IFA/gEhAfAxkkFU+vyp0Qvf/o0OD41DAIEUBLy8x2yAPu4kAP5A5k8D7NMHViOAAALtJuC4Dpe4fYJOAuADxGoEEEAAAQRsFCABsDGq9AkBBBBAAAEfARIAHyBWI4AAAgggYKMACYCNUaVPCCCAAAII+AiQAPgAsRoBBBBAAAEbBUgAbIwqfUIAAQQQQMBHgATAB4jVCCCAAAII2ChAAmBjVOkTAggggAACPgIkAD5ArEYAAQQQQMBGARIAG6NKnxBAAAEEEPARIAHwAWI1AggggAACNgqQANgYVfqEAAIIIICAjwAJgA8QqxFAAAEEELBRgATAxqjSJwQQQAABBHwESAB8gFiNAAIIIICAjQIkADZGlT4hgAACCCDgI0AC4APEagQQQAABBGwUIAGwMar0CQEEEEAAAR8BEgAfIFYjgAACCCBgowAJgI1RpU8IIIAAAgj4CJAA+ACxGgEEEEAAARsFSABsjCp9QgABBBBAwEeABMAHiNUIIIAAAgjYKEACYGNU6RMCCCCAAAI+AiQAPkCsRgABBBBAwEYBEgAbo0qfEEAAAQQQ8BEgAfABYjUCCCCAAAI2CpAA2BhV+oQAAggggICPAAmADxCrEUAAAQQQsFGABMDGqNInBBBAAAEEfARIAHyAWI0AAggggICNAiQANkaVPiGAAAIIIOAjQALgA8RqBBBAAAEEbBQgAbAxqvQJAQQQQAABHwESAB8gViOAAAIIIGCjAAmAjVGlTwgggAACCPgIkAD4ALEaAQQQQAABGwVIAGyMKn1CAAEEEEDAR4AEwAeI1QgggAACCNgoQAJgY1TpEwIIIIAAAj4CJAA+QKxGAAEEEEDARgESABujSp8QQAABBBDwESAB8AFiNQIIIIAAAjYKkADYGFX6hAACCCCAgI8ACYAPEKsRQAABBBCwUYAEwMao0icEEEAAAQR8BEgAfIBYjQACCCCAgI0CJAA2RpU+IYAAAggg4CNAAuADxGoEEEAAAQRsFCABsDGq9AkBBBBAAAEfARIAHyBWI4AAAgggYKMACYCNUaVPCCCAAAII+AiQAPgAsRoBBBBAAAEbBUgAbIwqfUIAAQQQQMBHgATAB4jVCCCAAAII2ChAAmBjVOkTAggggAACPgIkAD5ArEYAAQQQQMBGARIAG6NKnxBAAAEEEPARIAHwAWI1AggggAACNgqQANgYVfqEAAIIIICAjwAJgA8QqxFAAAEEELBRgATAxqjSJwQQQAABBHwESAB8gFiNAAIIIICAjQIkADZGlT4hgAACCCDgI0AC4APEagQQQAABBGwUIAGwMar0CQEEEEAAAR8BEgAfIFYjgAACCCBgowAJgI1RpU8IIIAAAgj4CJAA+ACxGgEEEEAAARsFSABsjCp9QgABBBBAwEeABMAHiNUIIIAAAgjYKEACYGNU6RMCCCCAAAI+AiQAPkCsRgABBBBAwEYBEgAbo0qfEEAAAQQQ8BEgAfABYjUCCCCAAAI2CpAA2BhV+oQAAggggICPAAmADxCrEUAAAQQQsFGABMDGqNInBBBAAAEEfARIAHyAWI0AAggggICNAiQANkaVPiGAAAIIIOAjQALgA8RqBBBAAAEEbBQgAbAxqvQJAQQQQAABHwESAB8gViOAAAIIIGCjAAmAjVGlTwgggAACCPgIkAD4ALEaAQQQQAABGwVIAGyMKn1CAAEEEEDAR4AEwAeI1QgggAACCNgoQAJgY1TpEwIIIIAAAj4CJAA+QKxGAAEEEEDARgESABujSp8QQAABBBDwESAB8AFiNQIIIIAAAjYKkADYGFX6hAACCCCAgI8ACYAPEKsRQAABBBCwUYAEwMao0icEEEAAAQR8BEgAfIBYjQACCCCAgI0CJAA2RpU+IYAAAggg4CNAAuADxGoEEEAAAQRsFCABsDGq9AkBBBBAAAEfARIAHyBWI4AAAgggYKMACYCNUaVPCCCAAAII+AiQAPgAsRoBBBBAAAEbBUgAbIwqfUIAAQQQQMBHgATAB4jVCCCAAAII2ChAAmBjVOkTAggggAACPgIkAD5ArEYAAQQQQMBGARIAG6NKnxBAAAEEEPARIAHwAWI1AggggAACNgqQANgYVfqEAAIIIICAjwAJgA8QqxFAAAEEELBRgATAxqjSJwQQQAABBHwESAB8gFiNAAIIIICAjQIkADZGlT4hgAACCCDgI0AC4APEagQQQAABBGwUIAGwMar0CQEEEEAAAR8BEgAfIFYjgAACCCBgowAJgI1RpU8IIIAAAgj4CJAA+ACxGgEEEEAAARsFSABsjCp9QgABBBBAwEeABMAHiNUIIIAAAgjYKEACYGNU6RMCCCCAAAI+AiQAPkCsRgABBBBAwEYBEgAbo0qfEEAAAQQQ8BEgAfABYjUCCCCAAAI2CpAA2BhV+oQAAggggICPAAmADxCrEUAAAQQQsFGABMDGqNInBBBAAAEEfARIAHyAWI0AAggggICNAiQANkaVPiGAAAIIIOAjQALgA8RqBBBAAAEEbBQgAbAxqvQJAQQQQAABHwESAB8gViOAAAIIIGCjAAmAjVGlTwgggAACCPgIkAD4ALEaAQQQQAABGwVIAGyMKn1CAAEEEEDAR4AEwAeI1QgggAACCNgoQAJgY1TpEwIIIIAAAj4CJAA+QKxGAAEEEEDARgESABujSp8QQAABBBDwESAB8AFiNQIIIIAAAjYKkADYGFX6hAACCCCAgI8ACYAPEKsRQAABBBCwUYAEwMao0icEEEAAAQR8BEgAfIBYjQACCCCAgI0CJAA2RpU+IYAAAggg4CNAAuADxGoEEEAAAQRsFCABsDGq9AkBBBBAAAEfARIAHyBWI4AAAgggYKMACYCNUaVPCCCAAAII+AiQAPgAsRoBBBBAAAEbBUgAbIwqfUIAAQQQQMBHgATAB4jVCCCAAAII2ChAAmBjVOkTAggggAACPgIkAD5ArEYAAQQQQMBGARIAG6NKnxBAAAEEEPARKPisZzUCxghM7tmjNm/dqu7ZdZ86es1q9Zjjj1ej5bIx7aMh7SfAe7L9Ym5Tj0kAbIqmpX254+671Sc+/3l17333H9bDo1avUn/5xjeqU0488bB1vIBAXAK8J+OSpdwkBZwkK8tiXRPj45cemJ19t8ltL+TzavWq1SY3MVTbXNdVn7v6anX9Dd9VnuctW4bjOOrF55yt3vSa16hcjqtay0KxomUB3pMtEyZXgOecNzQy9PXkKsxeTXxaZi9mbdPi//jGN9V137nhiAd/jaGTA72d3p4FgTgFeE/GqUvZSQuQACQtTn2BBCZ27FBXf/WrgbZ9aCO9vd6PBYE4BHhPxqFKmWkKkACkqU/dywp88atfU/V6fdn1S63Q2+v9WBCIQ4D3ZByqlJmmAAlAmvrUvayAHu0fZgm7X5i62Ke9BMK+t8Lu11669DYNARKANNSp84gC+/bvV/r2qjCL3k/vz4JAlAK8J6PUpCxTBEgATIkE7XhY4P4HJx/+Pcwvre4fpk72sVug1fdUq/vbrUvv0hIgAUhLnnqXFfDU8rf8LbvTQSta3f+govgVgUWBVt9Tre5PGBCIQ4AEIA5VykQAAQQQQMBwARIAwwNE8xBAAAEEEIhDgAQgDlXKRAABBBBAwHABEgDDA0TzEEAAAQQQiEOAhwHFoUqZCEQkoOee//XGjeq+Bx5QD0xOyrMO8uq0x5+sTtrwGFUsFiOqpbViarWaunNss7rt9o3KdRtq5eioWr1ypXrCySfzbIbWaNkbgVgFSABi5aVwBMIL/ObOjeozV/672rZz56MKufb661VnR4d6xYvPVa986UtVTh6GlMbiyjMYvvz1r6trr/+GqlSrhzXhuLVr1UWve6069aSTD1vHCwggkL4ACUD6MaAFCBwm8Okrr5KnIN5w2OsPvaAPuFd95f+pjZs2q79561vU4MDAQ6sS+VdPjPOPl/2r+tXtty9bn05c3vOhS+VJjeeoP33dBctuxwoEEEhHgDEA6bhTKwLLCnzv5puPePA/eEd9AP6r971v8RLBwa/H+bu+HKHrPNLB/+D6dSKj+8SCAAJmCZAAmBUPWtPmAjt37VL/598ub0pBzzL315f8XSJPQtRPxNN1NTuzne6T7hsLAgiYI0ACYE4saAkC6qZbfqyqMqiu2WVq3z71rg98UOlxA3Etumxdh66r2UX3SfeNBQEEzBEgATAnFrQEAfXrO+4IrTA7N7d4zf0jn/yUmtwd7mFKS1Wuy9Jl6uv5uo6wSyt9C1sn+yGAwPICDAJc3oY1CCQqUK/X1eaJiZbr/NFPfqJu/eUv1cte+EL1ouc+Vw0PlUKVuXdqWn3z+99XX/3Wt0KdlTi0Ut033cdCgY+dQ234G4E0BPifmIY6dSKwhIA+MHZ1dqq5+fkl1jb3kj7lfo3covfl665Tjz3+ePX0Jz9ZPe3JT1JHrV697G2D+ra+e++7T/3kF79Ut/7iF2rT1q3Kk9eiWnTfOPhHpUk5CLQuQALQuiElRCww0N/fUomt7t9S5S3uvHLFqJrYvqPFUh7ZXR/A7x4fX/y5/MtfVvl8Xg2XSqqsf4aHFzfcs3ev2jM9rfbKT6PReGTniH/Tfcvq0up7qtX9s+pGu80WIAEwOz5t2brVK1ao3p6eUNeb9X56/6wu69YeE2kCcKiDPsBP7tmz+KMkMUhy0X3L6tLO78msxox2+wswCNDfiC0SFnBkZrv1xx4bqla9n94/q8v5573UytPk+tS/7ltWl3Z+T2Y1ZrTbX4AEwN+ILVIQeN4f/EGoWsPuF6qyGHY6etUq9YLnPCeGktMtUvdJ9y3LS9j3Vtj9smxF27MhQAKQjTi1XSvPesaZ6imnndZUv/X2er+sLxe8/I/UiRtOyHo3Hm6/7ovuU9aXdn5PZj12tH9pARKApV141QCBv3jjG9SqgNfz9XZ6exsWPY7h0ve+Vz35CU/IfHd0H3RfdJ9sWNr1PWlD7OjD4QIkAIeb8IohAnq0+mV/f6l60fOet+x1fX1tVq/X2+ntbVn00/7e946/Us85M7tnNHTbdR90X2xZ2vk9aUsM6ccjAtkdLfVIH2L9bWJ8/NIDs7PvjrWSFgsvyK1dq1etbrEUs3ffsm2buv3Ou9SYTCZz7/33qaOkvxvWrVOPP+lx6oTjjjO78S20Tt/G9/mrr1Zf+8/vtFBK8rue94fPV298zWuWTdySb1H0NbbrezJ6yZhK9JzzhkaGvh5T6VYUy22AVoTR/k7og7zNB/rlIqjPcLzpta9VpcGSuvyaa5bbzKjXLzz/fPXyc19kVJviaEy7vifjsKTMdARIANJxp1YEmhLQB9TjjzlGfeaqq9Q9MluficvRMsvgRRdcoJ506u+Z2DzahAAChwiQABwCwp8ImCqgD6yXnXypuv6731Nf+trXQk2UFEff9AC/V513nnrx2c+zcg6DOMwoEwETBEgATIgCbUAgoICeUOdlL/hDddaZv6+uuPY/1Hd/+EOl5/BPY8nJ5Ymzn/Us9ceveLkaHBhIownUiQACLQiQALSAx64IpCWgD7j6lrQXPvcs9YUvXqN+c+fGSB/cc6R+6XEJp550snrDq89X6y0egHkkA9YhYIMACYANUaQPbSugD8Affu+7lX50749//jP145/9XN2xaZNyXTdSk1wup0557GPV7z/ldPX7pz8l9COGI20UhSGAQEsCJAAt8bEzAmYIDA+V1Llnn734M71/nzzO91eSDPxMzgzcGfoJf/rJgaeedJIc9J8ijxN+oioNDJrRWVqBAAKRCJAARMJIIQiYI6AP1H/4nGcv/ixUKmr3Hv24371q795ptXtqSk0tPvp3Su2RswZ6KUvyMFwaUkMykdLI0JAaHtaPCx5WI+Vh1dXZaU7HaAkCCEQqQAIQKSeFIWCWgD6AH71m9eKPWS2jNQggkLYAUwGnHQHqRwABBBBAIAUBEoAU0KkSAQQQQACBtAVIANKOAPUjgAACCCCQggAJQAroVIkAAggggEDaAiQAaUeA+hFAAAEEEEhBgAQgBXSqRAABBBBAIG0BEoC0I0D9CCCAAAIIpCBAApACOlUigAACCCCQtgAJQNoRoH4EEEAAAQRSECABSAGdKhFAAAEEEEhbgAQg7QhQPwIIIIAAAikIkAD4oMtDVas+m6S+2ku9BTQAAQQQMEvAy3l1s1pkXmtIAHxiIs9Bn/LZJPXVnkcKkHoQaAACCBgl4DScGaMaZGBjSAB8giIH190+m6S+2nXlPAULAggggMDDAo5yDjz8B78sKUACsCTLo1588FF/GfoHZwEMDQzNQgCBVARyqkYC4CNPAuAD5DhOJhIAzgL4BJLVCCDQVgIVpUgAfCJOAuADJN+s7/PZxIjVnAEwIgw0AgEEDBGQz0QSAJ9YkAD4AK1bt27SZxMjVrse4wCMCASNQAABEwS80dHRWRMaYnIbSAB8oiOXAFz5MX6Yveca30QfaVYjgAACkQnMZuFzO7LehiyIBCAAXM7JGX90dbkVMEAk2QQBBNpEgNP/AQJNAhAAyck5xk8o4XErYIBIsgkCCLSHALcABokzCUAAJTmVZHwCwBmAAIFkEwQQaA8BhwGAQQJNAhBASRIA86cDZhBggEiyCQIItIWAq5gFMECgSQACIEkCILeUmr24DAI0O0C0DgEEkhRgDEAAbRKAAEiyyUKwzdLbyuMMQHr41IwAAkYJOA6TAAUJCAlAACU5AzAXYLNUN+EMQKr8VI4AAgYJyKwonAEIEA8SgABIkgAYP6EEZwACBJJNEECgLQR4EFCwMJMABHCSBGBngM1S3aTeaKRaP5UjgAACBgkY/5ltghUJQIAo5FTuVwE2S3WTet34OxVT9aFyBBBoHwFXuZvap7fhe0oCEMQup24Oslma2+inATaYDCjNEFA3AggYIpDP50kAAsSCBCAA0rrt6/5bLgME2DLdTer1WroNoHYEEEAgZQH5pF4YHBzcnnIzMlE9CUCAMDnPduqSURp/K2C9xmWAAOFkEwQQsFhAHtyyRb6w8XjUADEmAQiApDeRBGBPwE1T26zGOIDU7KkYAQRMEXA4/R8wFCQAQaFyOeNPKXEJIGAw2QwBBKwVkKe3kwAEjC4JQECovJO/I+CmqW3GGYDU6KkYAQQMEfBczgAEDQUJQECpnOP9NOCmqW2mbwX0PLkCxoIAAgi0qUBONTgDEDD2JAABoVzH+UHATVPdrMGEQKn6UzkCCKQr4HILYOAAkAAEpDr++OO353I540eW1rgVMGBE2QwBBOwTcB4YGhqatq9f8fSIBKAJ10I+b/wDJpgRsImAsikCCFgmwADAZgJKAtCEVi6fv6+JzVPZtMZcAKm4UykCCKQvICOguP7fRBhIAJrAkrkAxprYPJVNuRUwFXYqRQABAwQcxRmAZsJAAtCMllK3Nbd58ltzK2Dy5tSIAAJmCHgOtwA2EwkSgCa0ZBDg15rYPJVNFx8KxJ0AqdhTKQIIpCsgd0H9Mt0WZKt2EoAm4rVu3bpfFwqFahO7pLLpQsX4xxak4kKlCCBgr4A8BOju0dFR48dpmRQBEoAmoyEJgPHjACqVSpO9YnMEEEAg4wKeuinjPUi8+SQATZIXcrnvNLlL4psvkAAkbk6FCCCQsoDj3ZhyCzJXPQlAkyGTQSafbXKXxDfXswEyH0Di7FSIAALpCXi5YvGH6VWfzZpJAJqM2/r16zfLZQDjL7JzFqDJwLI5AghkWeD2gYGB3VnuQBptJwEIoV4sFO4OsVuiuzAOIFFuKkMAgVQFPK7/h/AnAQiBls/lvhVit0R3IQFIlJvKEEAgTQE3x/X/EP4kACHQVC73uTC7JblPw20oHgyUpDh1IYBASgKuKqibU6o709WSAIQIn34yYLFYnA2xa6K7cBYgUW4qQwCBVAS8X/EEwHDwJADh3FQhX9gYctfEdmMgYGLUVIQAAikJeMrh+n9IexKAkHD5XP4bIXdNbDfOACRGTUUIIJCSgKe4/z8sPQlAeDnjxwHo5wLUarWwPWQ/BBBAwHSBusx7covpjTS1fSQAISMj4wAekHEAB0LunthuPBcgMWoqQgCB5AV+tmLFipnkq7WjRhKAFuIoCcCvW9g9kV0ZB5AIM5UggEAqAt4PUqnWkkpJAFoIZD6f/2gLuyeyqx4HoC8FsCCAAAK2Ccgn25dt61OS/SEBaEFbHg98XbFQnGuhiNh39TxPzc0b3cTYDagAAQQsFHDUr8rlsvF3Y5ksTwLQYnSKHcUbWiwi9t1n50gAYkemAgQQSFbAc65MtkL7aiMBaDGmMg7gf7dYROy7V6tVng4YuzIVIIBAggL1Qq3wpQTrs7IqEoAWw3rsscfe2dnZ+UCLxcS+O2cBYiemAgQQSErAU9/pX9X/YFLV2VoPCUAEke0oFL4YQTGxFjHHZYBYfSkcAQSSE3Acj9P/EXCTAESAWHfd9+dyOS+ComIrot6oq0q1Elv5FIwAAggkJDA9ODx8fUJ1WV0NCUAE4d2wYcP+jo6OuyMoKtYiuAwQKy+FI4BAAgLyTetax3H4NhOBNQlABIi6CBkM+ImIioqtmPn5eaVvC2RBAAEEsiogc/9fkdW2m9Zux7QGZbk9d27cWJWJqYsm96E8XFY93d0mN5G2IYAAAksLeGp8aGT4hKVX8mqzApwBaFbsCNvLZQDjH0oxNzd7hB6wCgEEEDBYwOHe/yijQwIQoWYun39/hMXFUtT8wgJTA8ciS6EIIBCzgOfknatirqOtiicBiDDc8oTAmzuKxX0RFhlLUQwGjIWVQhFAIF6BW0ql0kS8VbRX6SQAEce7o9j59YiLjLw45gSInJQCEUAgZgGHwX+RC5MAREwqp6jeLnMCGP34vWqtqvRTAlkQQACBLAjIaPX7p/bvvzoLbc1SG0kAIo6WPCFwWqYG/nbExUZe3P4D+yMvkwIRQACBeAS8j8pn60I8ZbdvqSQAMcReJql4g+kzAy7IGQD9kCAWBBBAwHCBPQu12r8a3sZMNo8EIIawnXDCCQ92dXbeFEPRkRbJWYBIOSkMAQRiEXA+sWrVKu5fjsGWBCAGVF2k3BL4+pw8sSKm4iMpVt8SWKvVIimLQhBAAIEYBParnPpkDOVSpAiQAMT0NpBbArd3dnXdGlPxkRXLWYDIKCkIAQQiFnAc9amhoaHpiIuluN8JkADE+FYoFApvkPEAMdbQetFz8nyAer3eekGUgAACCEQrMJcvFv852iIp7WABEoCDNSL+XUat3t3V2fWriIuNvDjOAkROSoEIINCygPOZ/v7+yZaLoYBlBUgAlqWJZkWxo/hG088C6JkB6w3OAkQTcUpBAIGWBTxVqbv1f2q5HAo4ogAJwBF5Wl953HHH3SbzAtzZeknxlnDgwIF4K6B0BBBAIKCAXDi9fHR0dFfAzdkspAAJQEi4ZnbrzOcvamb7NLbVZwEajUYaVVMnAgggcLBA3cs7Hzn4BX6PR4AEIB7XR5V67Pr1t8hYgPFHvWjYH57nqQMznAUwLCw0B4E2FPCulpH/29qw44l3mQQgIXIZC/C2hKoKXc3M7CyPCg6tx44IIBCBgJt33UsjKIciAgiQAARAimITuSPgO93d3ZujKCuuMvRZgH37eUZAXL6UiwACfgLO5QOjo5v8tmJ9NAIkANE4BiqlK5d7kenPCJiZnVFVZgcMFE82QgCBSAX25ov5iyMtkcKOKEACcESeaFeuXb9+TM4CGP9Iy6npqWg7TmkIIICAj4DMmfaegYGBPT6bsTpCAbOnqYuwo6YUJafZc3ffffd+mYO/15Q2LdWOodKQ6us1uolLNZvXEEAgkwLOz0rDpafJnClGPz8lk7RHaDRnAI6AE8cqeYO73R0db46j7CjL3Ld/HwMCowSlLAQQWE7AdVznLRz8l+OJ73USgPhsly35uPXrv9jd1XXHshsYsMJ1XTW9b58BLaEJCCBgs4B85/90abRk/JTpNsaABCClqOYLBT0g0E2p+kDVzs7Nqkq1GmhbNkIAAQSaF/AelEl//lfz+7FHFAIkAFEohihDPy64q6vr30LsmuguDAhMlJvKEGgvAS/3Lh73m17IGQSYnr3SAwI33X33lNx2N5BiM3yrLg2WVH9fn+92bIAAAgg0IXBLaXjomVz7b0Is4k05AxAxaDPF6QGBXR3dFzazTxrb6gGBPCcgDXnqRMBagbrnqLdy8E83viQA6fqr49Yf99Xurm6jB8DoGQIZEJjyG4XqEbBKwPnk8PDw7VZ1KYOdIQEwIGjynIAX5fN5ox/FNzc/pxYqFQO0aAICCGRcYFfdrb8v432wovkkAAaE8bjjjrtPBgR+0oCmHLEJekCgPhvAggACCIQVcJT3V6Ojozx6NCxghPsxCDBCzFaL2izLwsLChlbLiXN/PTugniWQBQEEEGhewLt8qFx+ffP7sUccApwBiEM1ZJl9Xt8ZhUJhIeTuieymHxmsLwewIIAAAk0K3DFfqRj/WPQm+5TpzUkADArfmseu2d3T2fNHMjLWoFYd3pS9U1OqXq8fvoJXEEAAgaUFZhue+4o1a9bw7WFpn1ReJQFIhX35SuWugG/1dvd+dvkt0l+jxwHs3ruH8QDph4IWIJANAc9568jIyF3ZaGz7tNLsr5rtE4fDepqN8QB9Mh6gdFjbeQEBBBB4RIDr/o9YmPUbZwDMisfDrcnGeIAZGQ8w/3Cb+QUBBBA4RIDr/oeAmPQnCYBJ0TioLVkZDzDFeICDosavCCBwkADX/Q/CMPFXEgATo/K7NmVhPIDruWoP4wEMfhfRNARSEuC6f0rwwatlDEBwq9S2ZDxAavRUjAACoQS47h+KLeGdOAOQMHiY6rIyHmCe8QBhwss+CNgmwHX/jESUBCADgcrKeIC9MlUw8wNk4A1FExGIT4Dr/vHZRl4yCUDkpPEUuDgeoLfX6OcFuC7jAeKJPqUikAkBTx7x+0bu989ErBYbSQKQnVip448//i96enquM7nJ1VpN7d7DJEEmx4i2IRCPgPdOecTvNfGUTalxCDAIMA7VmMscGxv7iVxvf2rM1bRUfE93jyoPD7dUBjsjgEA2BGRy0H8YHhm+OButpZUPCZAAPCSRsX83b9q8ZaGysN7kZvf39anSIDMFmhwj2oZA6wLeFfKEvz9pvRxKSFqASwBJi0dUX7GjeEpnR8eDERUXSzEHZmbU/gM89jsWXApFwAyBb5WGh99oRlNoRbMCJADNihmy/bp16xb6nYGTi8Wi0UfYffv3qVl5hDALAgjYJSCnj2+dryy8Qp5eyqNBMxpaLgFkNHAPNXvHjh3rZ2ZmNsrtd50PvWbivyPlsuru6jaxabQJAQSaF7gzV8g/Y3BwcG/zu7KHKQKcATAlEiHbccwxx4z3dXY+I5/PN0IWSb5ZpwAAC5FJREFUkchue/buVZVKJZG6qAQBBGIV2Okq7xwO/rEaJ1I4CUAizPFWcsz69T/v7ep9SS6X8+KtKXzpngwT3i3PDKjJbYIsCCCQWYG9Dc89p1wu35PZHtDwhwVIAB6myPYveqIgmSPgIrkeZ2xH9ERBk3t2q3qDS4bGBomGIbC8wJx8838RE/0sD5S1NSQAWYvYEdorEwV9rq+n7/1H2CT1VY1GQ03u3q0akgywIIBAZgTqMsvfy+Wb/62ZaTEN9RUgAfAlytYG69avu6S3t/efTT4ToJ8XMLl7UpIAo4ctZCvwtBaB+ASqjvJeI7P8fTu+Kig5DQFzzxenoWFRnRPjExfPzM1cKtfejY1xoVBQo+URpf9lQQABIwVm5OD/slK5/D0jW0ejWhIw9uDQUq/YeVFg69atF8zNzf1fufZu7JmefC6vRkdGlMxnQNQQQMAkAU9NOl7uBaXR0i9MahZtiU6ABCA6SyNLkiTgbHluwLfk2ruxX7NzTk7peQI6O42eysDI+NIoBGIS2JZ3G+cMjI5ujql8ijVAgATAgCDE3YRt27adJmcC/luuvXfFXVfY8vWYhfLQsOruZrKgsIbsh0BEArfX3cbzR0dHd0VUHsUYKkACYGhgom6WnAk4tlqp/I88rncg6rKjLG+oNKT6enujLJKyEEAguMAtKuecOzQ0NB18F7bMqoCx14azCmpqu+UWwe29fX3rOjs67ze1jbpdU9NT8gCh/SY3kbYhYKeAo66fmZs9m4O/neFdqlecAVhKxeLXNm7c2CED7u5YWFjYYHI3+3r71FCJRwmbHCPaZpOAd7k81e9NcimOe3NtCqtPX0gAfIBsXT02NnarDA58msn96+nuUcNDQ8rkOQ1M9qNtCAQRkFm6PzI8MvzuINuyjV0CXAKwK56Be7Nhw4any9TB1wXeIYUN5+bn1G6ZOlg/R4AFAQQiF5D/WN47OPhH7pqZAjkDkJlQxdPQifHxD8/Oz79b5gow9r2g5wgYGS4zYVA8bwFKbU+BKeU5Fw6NDBn9JaA9Q5Ncr4390E+OgJrkNsEz5HLADfKkvj5TNfRlgGG5Q0DOWpjaRNqFQCYE5Gv/T52c80oZ7Lc9Ew2mkbEJkADERputgnft2tUzOzv7I0kEnmxyy3t7ehcHBzIuwOQo0TZDBeTY73ysNFx6j/z/4bnchgYpyWaRACSpnYG6xsfHL5Ek4G9NvyRQlksCRZ4hkIF3FE00RGCPPBXkT+SBPt80pD00wwABEgADgmBaE3aMj58+W61+Xy4JGDtpkD4DoCcN6uWSgGlvH9pjnsCPXeWdL4/yvce8ptGiNAVIANLUN7juiYmJLpk6+CbTbxXkkoDBbyKalraA58gtfoPlob+VhLmedmOo3zwBEgDzYmJUi2QK4ffKcwQ+YPITBYuFoiqXh+WSAE8UNOrNQ2PSE5An+eUc74LBcvmG9BpBzaYLkACYHiED2qcfJiQzB95YrVaNnZrvt5cESnJJgOcIGPCWoQlpCnjqR3Wv8Woe5pNmELJRNwlANuKUeiv1FMLyuN7vy9mAZ6TemCM0QI8J0GMDdELAgkCbCbgysc+HZErfS+T9z5S+bRb8MN3lUzKMWhvvI5cEXlupVD4tAwSN/aqdz+cXbxXs7uLRwm38Vm2zrjs/d1znLaXR0i/brON0twUBEoAW8Np1V+8mr7B17fiV8wsL55t8u2B3V5cqDZaYQbBd36jt0e8pub3vvTKpz2flW7+cAWBBILgACUBwK7Y8REDuFDixVq19Y6GycMIhq4z5U18KGOjvV/19/VwWMCYqNCQCAT2P/xWFjo539ff3T0ZQHkW0oQAJQBsGPeoubxsff+tcpfJRuW2wK+qyoyqvIJMG6ccLd3Ua28Souko59gvcLt/63yqT+txif1fpYZwCJABx6rZR2XregEaj8WWZN+BceXqfse+rnu7uxcsCepwACwIZEzgg3/rfL4P8/kXObHFff8aCZ2Jzjf2gNhGLNvkLbN++/Ulyy+DXZKDgWv+t09lCXxYYHBhYvCyQTguoFYHmBOR8/7Wu575jZGTk3ub2ZGsElhcgAVjehjUtCEyMT1w8X5n/O7ks0NFCMbHuqh8zrC8LdHZ0xloPhSMQXsDZ7Cj3baVy+Xvhy2BPBJYWIAFY2oVXIxAYGxvTzxL4ipwNeK7JdwvouQMG5IxAIV+IoNcUgUAkAlOep/5pqDz0UTljVYmkRApB4BABEoBDQPgzegGZSXB1vVb/gtwtcI7JUwovJgL9kgjwlMHo3wSUGFDAe1AO+B+rNRqXyUx+cs2fBYH4BEgA4rOl5EMEdu7cOVytVD63UKm8RAYMGjsKTw8UHJBEQF8iYEEgIYF7lOf848z8zOfWrl07n1CdVNPmAiQAbf4GSKP7D258sG9/5/7L5NLA+ZIIGHuU1RMJ6USgo8PYYQxphI86oxXY6ijv7weHh6+Qb/7VaIumNASOLEACcGQf1sYooJ8v0NXV9QlJBC6UwYLGjsTr6uxcTATkWQgxalB0OwnIB+9drqM+LDP4fUkO/Mzb307BN6ivJAAGBaNdmyLzBuQmxsc/UqnW/qxWrxk7gb8+E6DPCOgzAywIhBLw1G2O431IvvF/VQ78cncfCwLpCZAApGdPzUsIyO2D71uoLrxTHjbUv8RqI17SYwN0IqDHCrAgEERAPmhvlW/8H5TZ+74dZHu2QSAJARKAJJSpo2kBSQReVW/U/6ZSrZxq6p0DejZBfedAT0+vKnLnQNMxtn8H5wGl3C+pXO5KOdV/m/39pYdZEyAByFrE2qy9eoph5aqLK7XK6+WswDFyucBIAX15YDEZ6O6Rz/uckW2kUYkIzMuH6nXybf8qOeh/V07zM2VvIuxUEkaABCCMGvukIiC3ER5VXah+oNaonVetVkupNMKnUvnAX3zgUI+cGdBjBfTfLNYLeMpTNyvHu1Kex/uVcrm83/oe00ErBPh0siKM7dcJmVzoDLlz4BJJBJ5p6nTD+kyAHiegLxF0ciuhdW9SORe1SQ78Vzl559/l2/526zpIh6wXIAGwPsT2d1DuILhQZk57uyQDp5g6XkDPLtgjlwf0ZQJmGsz0e3K3ctQ1Ode9anBk5GeZ7gmNb3sBEoC2fwvYA7Br164eeRzxRTK50Mvk51RT7yTokLsIOju75FJBp/zbyWUCs9+C+hq+HOi9G5Wbu7E0UrpFLuvUzG4yrUMgmAAJQDAntsqgwNatW1fKAMI3N7zGi+VZBCebOMeAHiNwcEKgBxMybiDVN5srp/V/I0G40XO8H8jlpf9asWLFTKotonIEYhIgAYgJlmLNE9ixY8d6+UDXZwieL2cHHiO/Gze1nz746/ECD50hYBri+N9H8iF4l+co+Ybv3Jgr5n44ODi4N/5aqQGB9AVIANKPAS1ISUBuMXyCjBl4s1t3z6rWq+tMfC5BzslJMvBIQsADilp+s+j7SCeUcn4o3/BvlJjfKE/du6/lUikAgQwKkABkMGg0OR6BLVu2rMg7+bPkwPB0t9F4fMN117kNd1QmJOqW+QeM+L+izxAUZAKiQqG4OJiwWCws/q4nImL+gUe9L2ZksN5mmWx3k6ecTRLTTWK3SZ47sXnVqlWzj9qSPxBoUwEjPtTa1J5uZ0hAbjs8Tb4tPkt53umu653YcBtHy98lk84a6ARAJwKPTg7k73zB1nEFctu92iYfYnKQ9+Qg72xyGs6muqpvkm/1uzL09qKpCKQiQAKQCjuV2iIwNjY2ILf1PVv6s07OEpTlZ0i5bkmOTIPyn6tfJi7sk4NTr1xq6JG/u2R9p7xWlH+Lrufm5d+c/MTOoW891FMX5+QMgiOXFZyc8/DvOfldv7a4bvF1Wa+3k4Ti4NcibqTu9JyYHBCfA1LhARl8pwfbHdCviZ/8K68pV/8t3+adxdcW1zfk95w7KfPqb5F2ViJuF8Uh0DYC/x+SBsmOGRHIUgAAAABJRU5ErkJggg==;" vertex="1" parent="1">
          <mxGeometry x="696" y="364" width="52" height="52" as="geometry" />
        </mxCell>
        <mxCell id="R886sbOOun7oYMftV1Vu-25" value="마우스" style="text;html=1;strokeColor=none;fillColor=none;align=center;verticalAlign=middle;whiteSpace=wrap;rounded=0;" vertex="1" parent="1">
          <mxGeometry x="693" y="337" width="60" height="30" as="geometry" />
        </mxCell>
        <mxCell id="R886sbOOun7oYMftV1Vu-26" value="보조 기억 장치" style="shape=cylinder3;whiteSpace=wrap;html=1;boundedLbl=1;backgroundOutline=1;size=15;" vertex="1" parent="1">
          <mxGeometry x="610" y="70" width="80" height="100" as="geometry" />
        </mxCell>
        <mxCell id="R886sbOOun7oYMftV1Vu-27" value="" style="endArrow=classic;startArrow=classic;html=1;rounded=0;" edge="1" parent="1">
          <mxGeometry width="50" height="50" relative="1" as="geometry">
            <mxPoint x="400" y="139.5" as="sourcePoint" />
            <mxPoint x="600" y="140" as="targetPoint" />
          </mxGeometry>
        </mxCell>
        <mxCell id="R886sbOOun7oYMftV1Vu-28" value="" style="endArrow=classic;startArrow=classic;html=1;rounded=0;" edge="1" parent="1">
          <mxGeometry width="50" height="50" relative="1" as="geometry">
            <mxPoint x="389" y="75" as="sourcePoint" />
            <mxPoint x="389" y="395" as="targetPoint" />
          </mxGeometry>
        </mxCell>
        <mxCell id="R886sbOOun7oYMftV1Vu-30" value="" style="endArrow=classic;startArrow=classic;html=1;rounded=0;" edge="1" parent="1">
          <mxGeometry width="50" height="50" relative="1" as="geometry">
            <mxPoint x="379" y="168" as="sourcePoint" />
            <mxPoint x="309" y="168" as="targetPoint" />
          </mxGeometry>
        </mxCell>
        <mxCell id="R886sbOOun7oYMftV1Vu-31" value="" style="endArrow=none;dashed=1;html=1;dashPattern=1 3;strokeWidth=2;rounded=0;" edge="1" parent="1">
          <mxGeometry width="50" height="50" relative="1" as="geometry">
            <mxPoint x="257.5" y="221" as="sourcePoint" />
            <mxPoint x="257.5" y="261" as="targetPoint" />
          </mxGeometry>
        </mxCell>
        <mxCell id="R886sbOOun7oYMftV1Vu-32" value="&amp;nbsp;제어 장치" style="rounded=1;whiteSpace=wrap;html=1;flipH=1;" vertex="1" parent="1">
          <mxGeometry x="167" y="180" width="53" height="65" as="geometry" />
        </mxCell>
        <mxCell id="R886sbOOun7oYMftV1Vu-38" value="메모리" style="rounded=0;whiteSpace=wrap;html=1;" vertex="1" parent="1">
          <mxGeometry x="160" y="294" width="140" height="96" as="geometry" />
        </mxCell>
        <mxCell id="R886sbOOun7oYMftV1Vu-39" value="" style="endArrow=classic;startArrow=classic;html=1;rounded=0;" edge="1" parent="1">
          <mxGeometry width="50" height="50" relative="1" as="geometry">
            <mxPoint x="381" y="333" as="sourcePoint" />
            <mxPoint x="311" y="333" as="targetPoint" />
          </mxGeometry>
        </mxCell>
      </root>
    </mxGraphModel>
  </diagram>
</mxfile>
